<svg version="1.1" xmlns="http://www.w3.org/2000/svg" xmlns:xlink="http://www.w3.org/1999/xlink" width="609" height="279"><defs><clipPath id="lnuUwoQovXMo"><path fill="none" stroke="none" d=" M 0 0 L 609 0 L 609 279 L 0 279 L 0 0 Z"/></clipPath></defs><g transform="scale(1,1)" clip-path="url(#lnuUwoQovXMo)"><g><path fill="none" stroke="rgb(224,224,224)" paint-order="fill stroke markers" d=" M 228.22539444027018 232.70022539444017 L 2.830954169797124 232.70022539444017" stroke-opacity="1" stroke-linecap="round" stroke-linejoin="round" stroke-miterlimit="10" stroke-width="1.5"/><path fill="none" stroke="rgb(224,224,224)" paint-order="fill stroke markers" d=" M 228.22539444027018 195.1344853493613 L 2.830954169797124 195.1344853493613" stroke-opacity="1" stroke-linecap="round" stroke-linejoin="round" stroke-miterlimit="10" stroke-width="1.5"/><path fill="none" stroke="rgb(224,224,224)" paint-order="fill stroke markers" d=" M 228.22539444027018 157.56874530428243 L 2.830954169797124 157.56874530428243" stroke-opacity="1" stroke-linecap="round" stroke-linejoin="round" stroke-miterlimit="10" stroke-width="1.5"/><path fill="none" stroke="rgb(224,224,224)" paint-order="fill stroke markers" d=" M 228.22539444027018 120.00300525920356 L 2.830954169797124 120.00300525920356" stroke-opacity="1" stroke-linecap="round" stroke-linejoin="round" stroke-miterlimit="10" stroke-width="1.5"/><path fill="none" stroke="rgb(224,224,224)" paint-order="fill stroke markers" d=" M 228.22539444027018 82.4372652141247 L 2.830954169797124 82.4372652141247" stroke-opacity="1" stroke-linecap="round" stroke-linejoin="round" stroke-miterlimit="10" stroke-width="1.5"/><path fill="none" stroke="rgb(224,224,224)" paint-order="fill stroke markers" d=" M 228.22539444027018 44.87152516904581 L 2.830954169797124 44.87152516904581" stroke-opacity="1" stroke-linecap="round" stroke-linejoin="round" stroke-miterlimit="10" stroke-width="1.5"/><path fill="none" stroke="rgb(224,224,224)" paint-order="fill stroke markers" d=" M 228.22539444027018 7.305785123966942 L 2.830954169797124 7.305785123966942" stroke-opacity="1" stroke-linecap="round" stroke-linejoin="round" stroke-miterlimit="10" stroke-width="1.5"/><path fill="none" stroke="rgb(224,224,224)" paint-order="fill stroke markers" d=" M 2.830954169797124 232.70022539444017 L 2.830954169797124 7.305785123966942" stroke-opacity="1" stroke-linecap="round" stroke-linejoin="round" stroke-miterlimit="10" stroke-width="1.5"/><path fill="none" stroke="rgb(224,224,224)" paint-order="fill stroke markers" d=" M 40.396694214875964 232.70022539444017 L 40.396694214875964 7.305785123966942" stroke-opacity="1" stroke-linecap="round" stroke-linejoin="round" stroke-miterlimit="10" stroke-width="1.5"/><path fill="none" stroke="rgb(224,224,224)" paint-order="fill stroke markers" d=" M 77.9624342599548 232.70022539444017 L 77.9624342599548 7.305785123966942" stroke-opacity="1" stroke-linecap="round" stroke-linejoin="round" stroke-miterlimit="10" stroke-width="1.5"/><path fill="none" stroke="rgb(224,224,224)" paint-order="fill stroke markers" d=" M 115.52817430503364 232.70022539444017 L 115.52817430503364 7.305785123966942" stroke-opacity="1" stroke-linecap="round" stroke-linejoin="round" stroke-miterlimit="10" stroke-width="1.5"/><path fill="none" stroke="rgb(224,224,224)" paint-order="fill stroke markers" d=" M 153.09391435011247 232.70022539444017 L 153.09391435011247 7.305785123966942" stroke-opacity="1" stroke-linecap="round" stroke-linejoin="round" stroke-miterlimit="10" stroke-width="1.5"/><path fill="none" stroke="rgb(224,224,224)" paint-order="fill stroke markers" d=" M 190.65965439519132 232.70022539444017 L 190.65965439519132 7.305785123966942" stroke-opacity="1" stroke-linecap="round" stroke-linejoin="round" stroke-miterlimit="10" stroke-width="1.5"/><path fill="none" stroke="rgb(224,224,224)" paint-order="fill stroke markers" d=" M 228.22539444027018 232.70022539444017 L 228.22539444027018 7.305785123966942" stroke-opacity="1" stroke-linecap="round" stroke-linejoin="round" stroke-miterlimit="10" stroke-width="1.5"/><path fill="none" stroke="rgb(224,224,224)" paint-order="fill stroke markers" d=" M 537.8662917775832 232.70022539444017 L 603.8827948910586 166.68372228096484" stroke-opacity="1" stroke-linecap="round" stroke-linejoin="round" stroke-miterlimit="10" stroke-width="1.5"/><path fill="none" stroke="rgb(224,224,224)" paint-order="fill stroke markers" d=" M 484.74031272525065 232.70022539444017 L 603.8827948910586 113.55774322863223" stroke-opacity="1" stroke-linecap="round" stroke-linejoin="round" stroke-miterlimit="10" stroke-width="1.5"/><path fill="none" stroke="rgb(224,224,224)" paint-order="fill stroke markers" d=" M 431.6143336729181 232.70022539444017 L 603.8827948910586 60.43176417629962" stroke-opacity="1" stroke-linecap="round" stroke-linejoin="round" stroke-miterlimit="10" stroke-width="1.5"/><path fill="none" stroke="rgb(224,224,224)" paint-order="fill stroke markers" d=" M 378.4883546205854 232.70022539444017 L 603.8827948910586 7.30578512396697" stroke-opacity="1" stroke-linecap="round" stroke-linejoin="round" stroke-miterlimit="10" stroke-width="1.5"/><path fill="none" stroke="rgb(224,224,224)" paint-order="fill stroke markers" d=" M 378.4883546205854 232.70022539444017 L 603.8827948910587 7.305785123966942" stroke-opacity="1" stroke-linecap="round" stroke-linejoin="round" stroke-miterlimit="10" stroke-width="1.5"/><path fill="none" stroke="rgb(224,224,224)" paint-order="fill stroke markers" d=" M 378.4883546205854 232.70022539444017 L 378.48835462058554 232.70022539444008" stroke-opacity="1" stroke-linecap="round" stroke-linejoin="round" stroke-miterlimit="10" stroke-width="1.5"/><path fill="none" stroke="rgb(224,224,224)" paint-order="fill stroke markers" d=" M 603.8827948910586 7.30578512396697 L 603.8827948910587 7.305785123966942" stroke-opacity="1" stroke-linecap="round" stroke-linejoin="round" stroke-miterlimit="10" stroke-width="1.5"/><path fill="none" stroke="rgb(224,224,224)" paint-order="fill stroke markers" d=" M 603.8827948910586 7.30578512396697 L 378.48835462058554 232.70022539444008" stroke-opacity="1" stroke-linecap="round" stroke-linejoin="round" stroke-miterlimit="10" stroke-width="1.5"/><path fill="none" stroke="rgb(224,224,224)" paint-order="fill stroke markers" d=" M 603.8827948910587 7.305785123966942 L 378.48835462058554 232.70022539444008" stroke-opacity="1" stroke-linecap="round" stroke-linejoin="round" stroke-miterlimit="10" stroke-width="1.5"/><path fill="none" stroke="rgb(224,224,224)" paint-order="fill stroke markers" d=" M 550.756815838726 7.305785123966942 L 378.48835462058554 179.57424634210741" stroke-opacity="1" stroke-linecap="round" stroke-linejoin="round" stroke-miterlimit="10" stroke-width="1.5"/><path fill="none" stroke="rgb(224,224,224)" paint-order="fill stroke markers" d=" M 497.63083678639344 7.305785123966942 L 378.48835462058554 126.44826728977486" stroke-opacity="1" stroke-linecap="round" stroke-linejoin="round" stroke-miterlimit="10" stroke-width="1.5"/><path fill="none" stroke="rgb(224,224,224)" paint-order="fill stroke markers" d=" M 444.5048577340608 7.305785123966942 L 378.48835462058554 73.32228823744227" stroke-opacity="1" stroke-linecap="round" stroke-linejoin="round" stroke-miterlimit="10" stroke-width="1.5"/><path fill="none" stroke="rgb(224,224,224)" paint-order="fill stroke markers" d=" M 603.8827948910586 232.70022539444017 L 603.8827948910586 232.70022539444017" stroke-opacity="1" stroke-linecap="round" stroke-linejoin="round" stroke-miterlimit="10" stroke-width="1.5"/><path fill="none" stroke="rgb(224,224,224)" paint-order="fill stroke markers" d=" M 603.8827948910586 232.70022539444017 L 378.4883546205855 7.305785123966942" stroke-opacity="1" stroke-linecap="round" stroke-linejoin="round" stroke-miterlimit="10" stroke-width="1.5"/><path fill="none" stroke="rgb(224,224,224)" paint-order="fill stroke markers" d=" M 444.50485773406075 232.70022539444017 L 378.48835462058554 166.6837222809649" stroke-opacity="1" stroke-linecap="round" stroke-linejoin="round" stroke-miterlimit="10" stroke-width="1.5"/><path fill="none" stroke="rgb(224,224,224)" paint-order="fill stroke markers" d=" M 497.63083678639344 232.70022539444017 L 378.48835462058554 113.55774322863226" stroke-opacity="1" stroke-linecap="round" stroke-linejoin="round" stroke-miterlimit="10" stroke-width="1.5"/><path fill="none" stroke="rgb(224,224,224)" paint-order="fill stroke markers" d=" M 550.756815838726 232.70022539444017 L 378.48835462058554 60.4317641762996" stroke-opacity="1" stroke-linecap="round" stroke-linejoin="round" stroke-miterlimit="10" stroke-width="1.5"/><path fill="none" stroke="rgb(224,224,224)" paint-order="fill stroke markers" d=" M 603.8827948910586 232.70022539444017 L 378.48835462058554 7.305785123966999" stroke-opacity="1" stroke-linecap="round" stroke-linejoin="round" stroke-miterlimit="10" stroke-width="1.5"/><path fill="none" stroke="rgb(224,224,224)" paint-order="fill stroke markers" d=" M 603.8827948910586 232.70022539444017 L 378.4883546205855 7.305785123966942" stroke-opacity="1" stroke-linecap="round" stroke-linejoin="round" stroke-miterlimit="10" stroke-width="1.5"/><path fill="none" stroke="rgb(224,224,224)" paint-order="fill stroke markers" d=" M 603.8827948910586 179.57424634210756 L 431.61433367291806 7.305785123966942" stroke-opacity="1" stroke-linecap="round" stroke-linejoin="round" stroke-miterlimit="10" stroke-width="1.5"/><path fill="none" stroke="rgb(224,224,224)" paint-order="fill stroke markers" d=" M 603.8827948910586 126.44826728977496 L 484.7403127252506 7.305785123966942" stroke-opacity="1" stroke-linecap="round" stroke-linejoin="round" stroke-miterlimit="10" stroke-width="1.5"/><path fill="none" stroke="rgb(224,224,224)" paint-order="fill stroke markers" d=" M 603.8827948910586 73.32228823744222 L 537.8662917775833 7.305785123966942" stroke-opacity="1" stroke-linecap="round" stroke-linejoin="round" stroke-miterlimit="10" stroke-width="1.5"/><path fill="none" stroke="rgb(224,224,224)" paint-order="fill stroke markers" d=" M 603.8827948910586 232.70022539444017 L 378.48835462058554 7.305785123966999" stroke-opacity="1" stroke-linecap="round" stroke-linejoin="round" stroke-miterlimit="10" stroke-width="1.5"/><path fill="none" stroke="rgb(224,224,224)" paint-order="fill stroke markers" d=" M 378.4883546205855 7.305785123966942 L 378.48835462058554 7.305785123966999" stroke-opacity="1" stroke-linecap="round" stroke-linejoin="round" stroke-miterlimit="10" stroke-width="1.5"/><path fill="rgb(102,0,204)" stroke="none" paint-order="stroke fill markers" fill-rule="evenodd" d=" M 2.830954169797124 232.70022539444017 L 228.22539444027018 232.70022539444017 L 228.22539444027018 7.305785123966942 L 2.830954169797124 7.305785123966942 Z" fill-opacity="0.09803921568627451"/><path fill="rgb(0,153,255)" stroke="none" paint-order="stroke fill markers" fill-rule="evenodd" d=" M 378.48835462058554 232.70022539444017 L 603.8827948910586 232.70022539444017 L 603.8827948910586 7.305785123966942 L 378.48835462058554 7.305785123966942 Z" fill-opacity="0.09803921568627451"/><path fill="none" stroke="rgb(102,0,204)" paint-order="fill stroke markers" d=" M 2.830954169797124 232.70022539444017 L 228.22539444027018 232.70022539444017" stroke-opacity="0.6980392156862745" stroke-linecap="round" stroke-linejoin="round" stroke-miterlimit="10" stroke-width="1.5"/><path fill="none" stroke="rgb(102,0,204)" paint-order="fill stroke markers" d=" M 228.22539444027018 232.70022539444017 L 228.22539444027018 7.305785123966942" stroke-opacity="0.6980392156862745" stroke-linecap="round" stroke-linejoin="round" stroke-miterlimit="10" stroke-width="1.5"/><path fill="none" stroke="rgb(102,0,204)" paint-order="fill stroke markers" d=" M 228.22539444027018 7.305785123966942 L 2.830954169797124 7.305785123966942" stroke-opacity="0.6980392156862745" stroke-linecap="round" stroke-linejoin="round" stroke-miterlimit="10" stroke-width="1.5"/><path fill="none" stroke="rgb(102,0,204)" paint-order="fill stroke markers" d=" M 2.830954169797124 7.305785123966942 L 2.830954169797124 232.70022539444017" stroke-opacity="0.6980392156862745" stroke-linecap="round" stroke-linejoin="round" stroke-miterlimit="10" stroke-width="1.5"/><path fill="none" stroke="rgb(0,153,255)" paint-order="fill stroke markers" d=" M 378.48835462058554 232.70022539444017 L 603.8827948910586 232.70022539444017" stroke-opacity="0.6980392156862745" stroke-linecap="round" stroke-linejoin="round" stroke-miterlimit="10" stroke-width="1.5"/><path fill="none" stroke="rgb(0,153,255)" paint-order="fill stroke markers" d=" M 603.8827948910586 232.70022539444017 L 603.8827948910586 7.305785123966942" stroke-opacity="0.6980392156862745" stroke-linecap="round" stroke-linejoin="round" stroke-miterlimit="10" stroke-width="1.5"/><path fill="none" stroke="rgb(0,153,255)" paint-order="fill stroke markers" d=" M 603.8827948910586 7.305785123966942 L 378.48835462058554 7.305785123966942" stroke-opacity="0.6980392156862745" stroke-linecap="round" stroke-linejoin="round" stroke-miterlimit="10" stroke-width="1.5"/><path fill="none" stroke="rgb(0,153,255)" paint-order="fill stroke markers" d=" M 378.48835462058554 7.305785123966942 L 378.48835462058554 232.70022539444017" stroke-opacity="0.6980392156862745" stroke-linecap="round" stroke-linejoin="round" stroke-miterlimit="10" stroke-width="1.5"/><path fill="none" stroke="rgb(0,0,0)" paint-order="fill stroke markers" d=" M 115.52817430503364 120.00300525920356 L 115.52817430503364 98.4372652141247" stroke-opacity="0.6980392156862745" stroke-linecap="round" stroke-linejoin="round" stroke-miterlimit="10" stroke-width="2"/><path fill="rgb(0,0,0)" stroke="none" paint-order="stroke fill markers" fill-rule="evenodd" d=" M 115.52817430503364 82.4372652141247 L 119.52817430503364 98.4372652141247 L 111.52817430503364 98.4372652141247 Z" fill-opacity="0.6980392156862745"/><g transform="scale(23,23)"><g transform="translate(3.739130434782609,4.748792826086956)"><path fill="rgb(0,0,0)" stroke="none" paint-order="stroke fill markers" d=" M 0.222 -0.218 L 0.178 -0.218 Q 0.163 -0.162 0.163 -0.125 Q 0.163 -0.028 0.261 -0.028 Q 0.396 -0.028 0.47100000000000003 -0.107 Q 0.481 -0.11800000000000001 0.486 -0.11800000000000001 Q 0.493 -0.11800000000000001 0.502 -0.108 Q 0.511 -0.098 0.511 -0.092 Q 0.511 -0.081 0.482 -0.0565 Q 0.453 -0.032 0.41300000000000003 -0.016 Q 0.35000000000000003 0.008 0.258 0.008 Q 0.159 0.008 0.10400000000000001 -0.039 Q 0.049 -0.08600000000000001 0.049 -0.17200000000000001 Q 0.049 -0.29 0.1365 -0.371 Q 0.224 -0.452 0.358 -0.452 Q 0.42 -0.452 0.4575 -0.4255 Q 0.495 -0.399 0.495 -0.356 Q 0.495 -0.272 0.396 -0.23800000000000002 Q 0.336 -0.218 0.222 -0.218 M 0.187 -0.254 Q 0.216 -0.254 0.232 -0.254 Q 0.248 -0.254 0.278 -0.256 Q 0.308 -0.258 0.326 -0.2615 Q 0.34400000000000003 -0.265 0.367 -0.2725 Q 0.39 -0.28 0.403 -0.2905 Q 0.41600000000000004 -0.301 0.4255 -0.3175 Q 0.435 -0.334 0.435 -0.355 Q 0.435 -0.386 0.41200000000000003 -0.401 Q 0.389 -0.41600000000000004 0.358 -0.41600000000000004 Q 0.292 -0.41600000000000004 0.246 -0.37 Q 0.20600000000000002 -0.333 0.187 -0.254 Z"/></g><g transform="translate(4.292739434782609,4.898792826086956) scale(0.7,0.7)"><path fill="rgb(0,0,0)" stroke="none" paint-order="stroke fill markers" d=" M 0.517 -0.222 L 0.486 0 L 0.057 0 L 0.057 -0.018000000000000002 Q 0.057 -0.034 0.059000000000000004 -0.0385 Q 0.061 -0.043000000000000003 0.07 -0.052000000000000005 L 0.271 -0.257 Q 0.379 -0.367 0.379 -0.465 Q 0.379 -0.525 0.34400000000000003 -0.5665 Q 0.309 -0.608 0.247 -0.608 Q 0.186 -0.608 0.14400000000000002 -0.5730000000000001 Q 0.155 -0.5700000000000001 0.166 -0.5645 Q 0.177 -0.559 0.189 -0.542 Q 0.201 -0.525 0.201 -0.501 Q 0.201 -0.466 0.1785 -0.4475 Q 0.156 -0.429 0.129 -0.429 Q 0.10400000000000001 -0.429 0.0805 -0.4465 Q 0.057 -0.464 0.057 -0.503 Q 0.057 -0.5700000000000001 0.11850000000000001 -0.6125 Q 0.18 -0.655 0.272 -0.655 Q 0.379 -0.655 0.448 -0.603 Q 0.517 -0.551 0.517 -0.466 Q 0.517 -0.431 0.507 -0.404 Q 0.497 -0.377 0.46900000000000003 -0.34750000000000003 Q 0.441 -0.318 0.417 -0.299 Q 0.393 -0.28 0.339 -0.24 Q 0.292 -0.20600000000000002 0.195 -0.125 L 0.342 -0.125 Q 0.433 -0.125 0.444 -0.131 Q 0.457 -0.138 0.47000000000000003 -0.222 L 0.517 -0.222 Z"/></g></g><path fill="none" stroke="rgb(0,0,0)" paint-order="fill stroke markers" d=" M 115.52817430503364 120.00300525920356 L 137.09391435011247 120.00300525920356" stroke-opacity="0.6980392156862745" stroke-linecap="round" stroke-linejoin="round" stroke-miterlimit="10" stroke-width="2"/><path fill="rgb(0,0,0)" stroke="none" paint-order="stroke fill markers" fill-rule="evenodd" d=" M 153.09391435011247 120.00300525920356 L 137.09391435011247 124.00300525920356 L 137.09391435011247 116.00300525920356 Z" fill-opacity="0.6980392156862745"/><g transform="scale(23,23)"><g transform="translate(5.3478260869565215,6.0966189130434785)"><path fill="rgb(0,0,0)" stroke="none" paint-order="stroke fill markers" d=" M 0.222 -0.218 L 0.178 -0.218 Q 0.163 -0.162 0.163 -0.125 Q 0.163 -0.028 0.261 -0.028 Q 0.396 -0.028 0.47100000000000003 -0.107 Q 0.481 -0.11800000000000001 0.486 -0.11800000000000001 Q 0.493 -0.11800000000000001 0.502 -0.108 Q 0.511 -0.098 0.511 -0.092 Q 0.511 -0.081 0.482 -0.0565 Q 0.453 -0.032 0.41300000000000003 -0.016 Q 0.35000000000000003 0.008 0.258 0.008 Q 0.159 0.008 0.10400000000000001 -0.039 Q 0.049 -0.08600000000000001 0.049 -0.17200000000000001 Q 0.049 -0.29 0.1365 -0.371 Q 0.224 -0.452 0.358 -0.452 Q 0.42 -0.452 0.4575 -0.4255 Q 0.495 -0.399 0.495 -0.356 Q 0.495 -0.272 0.396 -0.23800000000000002 Q 0.336 -0.218 0.222 -0.218 M 0.187 -0.254 Q 0.216 -0.254 0.232 -0.254 Q 0.248 -0.254 0.278 -0.256 Q 0.308 -0.258 0.326 -0.2615 Q 0.34400000000000003 -0.265 0.367 -0.2725 Q 0.39 -0.28 0.403 -0.2905 Q 0.41600000000000004 -0.301 0.4255 -0.3175 Q 0.435 -0.334 0.435 -0.355 Q 0.435 -0.386 0.41200000000000003 -0.401 Q 0.389 -0.41600000000000004 0.358 -0.41600000000000004 Q 0.292 -0.41600000000000004 0.246 -0.37 Q 0.20600000000000002 -0.333 0.187 -0.254 Z"/></g><g transform="translate(5.901435086956521,6.246618913043479) scale(0.7,0.7)"><path fill="rgb(0,0,0)" stroke="none" paint-order="stroke fill markers" d=" M 0.354 -0.623 L 0.354 -0.047 L 0.494 -0.047 L 0.494 0 Q 0.45 -0.003 0.295 -0.003 Q 0.14 -0.003 0.096 0 L 0.096 -0.047 L 0.23500000000000001 -0.047 L 0.23500000000000001 -0.5640000000000001 Q 0.17300000000000001 -0.544 0.105 -0.544 L 0.085 -0.544 L 0.085 -0.591 L 0.105 -0.591 Q 0.229 -0.591 0.306 -0.648 Q 0.315 -0.655 0.328 -0.655 Q 0.34600000000000003 -0.655 0.35000000000000003 -0.6485 Q 0.354 -0.642 0.354 -0.623 Z"/></g></g><path fill="none" stroke="rgb(0,0,0)" paint-order="fill stroke markers" d=" M 491.185574755822 120.00300525920356 L 475.93629372864046 104.75372423202201" stroke-opacity="0.6980392156862745" stroke-linecap="round" stroke-linejoin="round" stroke-miterlimit="10" stroke-width="2"/><path fill="rgb(0,0,0)" stroke="none" paint-order="stroke fill markers" fill-rule="evenodd" d=" M 464.6225852296557 93.44001573303724 L 478.7647208533867 101.92529710727582 L 473.10786660389425 107.5821513567682 Z" fill-opacity="0.6980392156862745"/><g transform="scale(23,23)"><g transform="translate(19.73913043478261,5.227053695652174)"><path fill="rgb(0,0,0)" stroke="none" paint-order="stroke fill markers" d=" M 0.052000000000000005 0.129 L 0.169 -0.336 Q 0.17500000000000002 -0.357 0.17500000000000002 -0.379 Q 0.17500000000000002 -0.41600000000000004 0.152 -0.41600000000000004 Q 0.109 -0.41600000000000004 0.084 -0.316 Q 0.077 -0.28800000000000003 0.076 -0.28700000000000003 Q 0.07100000000000001 -0.28200000000000003 0.056 -0.28200000000000003 Q 0.032 -0.28200000000000003 0.032 -0.296 Q 0.032 -0.304 0.043000000000000003 -0.3365 Q 0.054 -0.369 0.07 -0.395 Q 0.10300000000000001 -0.452 0.157 -0.452 Q 0.234 -0.452 0.272 -0.398 Q 0.33 -0.452 0.41100000000000003 -0.452 Q 0.483 -0.452 0.5345 -0.41200000000000003 Q 0.586 -0.372 0.586 -0.28700000000000003 Q 0.586 -0.176 0.5065000000000001 -0.084 Q 0.427 0.008 0.304 0.008 Q 0.242 0.008 0.203 -0.028 L 0.16 0.146 Q 0.17300000000000001 0.147 0.203 0.147 Q 0.229 0.147 0.229 0.165 Q 0.229 0.194 0.203 0.194 Q 0.186 0.194 0.15 0.1925 Q 0.114 0.191 0.096 0.191 Q 0.081 0.191 0.0495 0.1925 Q 0.018000000000000002 0.194 0.004 0.194 Q -0.015 0.194 -0.015 0.17500000000000002 Q -0.015 0.162 -0.009000000000000001 0.1555 Q -0.003 0.149 0.003 0.148 Q 0.009000000000000001 0.147 0.02 0.147 Q 0.04 0.147 0.046 0.145 Q 0.048 0.14300000000000002 0.052000000000000005 0.129 M 0.28200000000000003 -0.35100000000000003 L 0.221 -0.1 L 0.219 -0.08600000000000001 Q 0.219 -0.07200000000000001 0.2415 -0.05 Q 0.264 -0.028 0.302 -0.028 Q 0.381 -0.028 0.423 -0.126 Q 0.437 -0.16 0.455 -0.232 Q 0.47300000000000003 -0.304 0.47300000000000003 -0.34 Q 0.47300000000000003 -0.41600000000000004 0.406 -0.41600000000000004 Q 0.372 -0.41600000000000004 0.339 -0.3975 Q 0.306 -0.379 0.28200000000000003 -0.35100000000000003 Z"/></g><g transform="translate(20.34005443478261,5.377053695652174) scale(0.7,0.7)"><path fill="rgb(0,0,0)" stroke="none" paint-order="stroke fill markers" d=" M 0.517 -0.222 L 0.486 0 L 0.057 0 L 0.057 -0.018000000000000002 Q 0.057 -0.034 0.059000000000000004 -0.0385 Q 0.061 -0.043000000000000003 0.07 -0.052000000000000005 L 0.271 -0.257 Q 0.379 -0.367 0.379 -0.465 Q 0.379 -0.525 0.34400000000000003 -0.5665 Q 0.309 -0.608 0.247 -0.608 Q 0.186 -0.608 0.14400000000000002 -0.5730000000000001 Q 0.155 -0.5700000000000001 0.166 -0.5645 Q 0.177 -0.559 0.189 -0.542 Q 0.201 -0.525 0.201 -0.501 Q 0.201 -0.466 0.1785 -0.4475 Q 0.156 -0.429 0.129 -0.429 Q 0.10400000000000001 -0.429 0.0805 -0.4465 Q 0.057 -0.464 0.057 -0.503 Q 0.057 -0.5700000000000001 0.11850000000000001 -0.6125 Q 0.18 -0.655 0.272 -0.655 Q 0.379 -0.655 0.448 -0.603 Q 0.517 -0.551 0.517 -0.466 Q 0.517 -0.431 0.507 -0.404 Q 0.497 -0.377 0.46900000000000003 -0.34750000000000003 Q 0.441 -0.318 0.417 -0.299 Q 0.393 -0.28 0.339 -0.24 Q 0.292 -0.20600000000000002 0.195 -0.125 L 0.342 -0.125 Q 0.433 -0.125 0.444 -0.131 Q 0.457 -0.138 0.47000000000000003 -0.222 L 0.517 -0.222 Z"/></g></g><path fill="none" stroke="rgb(0,0,0)" paint-order="fill stroke markers" d=" M 491.185574755822 120.00300525920356 L 506.43485578300357 104.75372423202201" stroke-opacity="0.6980392156862745" stroke-linecap="round" stroke-linejoin="round" stroke-miterlimit="10" stroke-width="2"/><path fill="rgb(0,0,0)" stroke="none" paint-order="stroke fill markers" fill-rule="evenodd" d=" M 517.7485642819884 93.44001573303726 L 509.2632829077498 107.58215135676821 L 503.60642865825736 101.92529710727581 Z" fill-opacity="0.6980392156862745"/><g transform="scale(23,23)"><g transform="translate(22.130434782608695,5.314010217391305)"><path fill="rgb(0,0,0)" stroke="none" paint-order="stroke fill markers" d=" M 0.052000000000000005 0.129 L 0.169 -0.336 Q 0.17500000000000002 -0.357 0.17500000000000002 -0.379 Q 0.17500000000000002 -0.41600000000000004 0.152 -0.41600000000000004 Q 0.109 -0.41600000000000004 0.084 -0.316 Q 0.077 -0.28800000000000003 0.076 -0.28700000000000003 Q 0.07100000000000001 -0.28200000000000003 0.056 -0.28200000000000003 Q 0.032 -0.28200000000000003 0.032 -0.296 Q 0.032 -0.304 0.043000000000000003 -0.3365 Q 0.054 -0.369 0.07 -0.395 Q 0.10300000000000001 -0.452 0.157 -0.452 Q 0.234 -0.452 0.272 -0.398 Q 0.33 -0.452 0.41100000000000003 -0.452 Q 0.483 -0.452 0.5345 -0.41200000000000003 Q 0.586 -0.372 0.586 -0.28700000000000003 Q 0.586 -0.176 0.5065000000000001 -0.084 Q 0.427 0.008 0.304 0.008 Q 0.242 0.008 0.203 -0.028 L 0.16 0.146 Q 0.17300000000000001 0.147 0.203 0.147 Q 0.229 0.147 0.229 0.165 Q 0.229 0.194 0.203 0.194 Q 0.186 0.194 0.15 0.1925 Q 0.114 0.191 0.096 0.191 Q 0.081 0.191 0.0495 0.1925 Q 0.018000000000000002 0.194 0.004 0.194 Q -0.015 0.194 -0.015 0.17500000000000002 Q -0.015 0.162 -0.009000000000000001 0.1555 Q -0.003 0.149 0.003 0.148 Q 0.009000000000000001 0.147 0.02 0.147 Q 0.04 0.147 0.046 0.145 Q 0.048 0.14300000000000002 0.052000000000000005 0.129 M 0.28200000000000003 -0.35100000000000003 L 0.221 -0.1 L 0.219 -0.08600000000000001 Q 0.219 -0.07200000000000001 0.2415 -0.05 Q 0.264 -0.028 0.302 -0.028 Q 0.381 -0.028 0.423 -0.126 Q 0.437 -0.16 0.455 -0.232 Q 0.47300000000000003 -0.304 0.47300000000000003 -0.34 Q 0.47300000000000003 -0.41600000000000004 0.406 -0.41600000000000004 Q 0.372 -0.41600000000000004 0.339 -0.3975 Q 0.306 -0.379 0.28200000000000003 -0.35100000000000003 Z"/></g><g transform="translate(22.731358782608694,5.464010217391305) scale(0.7,0.7)"><path fill="rgb(0,0,0)" stroke="none" paint-order="stroke fill markers" d=" M 0.354 -0.623 L 0.354 -0.047 L 0.494 -0.047 L 0.494 0 Q 0.45 -0.003 0.295 -0.003 Q 0.14 -0.003 0.096 0 L 0.096 -0.047 L 0.23500000000000001 -0.047 L 0.23500000000000001 -0.5640000000000001 Q 0.17300000000000001 -0.544 0.105 -0.544 L 0.085 -0.544 L 0.085 -0.591 L 0.105 -0.591 Q 0.229 -0.591 0.306 -0.648 Q 0.315 -0.655 0.328 -0.655 Q 0.34600000000000003 -0.655 0.35000000000000003 -0.6485 Q 0.354 -0.642 0.354 -0.623 Z"/></g></g><g transform="scale(23,23)"><g transform="translate(1.9130434782608696,11.501865352173912)"><path fill="rgb(0,0,0)" stroke="none" paint-order="stroke fill markers" d=" M 0.293 0.25 L 0.128 0.25 L 0.128 -0.75 L 0.293 -0.75 L 0.293 -0.6890000000000001 L 0.189 -0.6890000000000001 L 0.189 0.189 L 0.293 0.189 L 0.293 0.25 Z"/></g><g transform="translate(2.2324864782608698,11.501865352173912)"><path fill="rgb(0,0,0)" stroke="none" paint-order="stroke fill markers" d=" M 0.536 -0.401 Q 0.516 -0.41600000000000004 0.488 -0.41600000000000004 Q 0.461 -0.41600000000000004 0.4375 -0.392 Q 0.41400000000000003 -0.368 0.403 -0.325 Q 0.4 -0.316 0.385 -0.257 Q 0.37 -0.198 0.368 -0.189 Q 0.34600000000000003 -0.099 0.34600000000000003 -0.078 Q 0.34600000000000003 -0.028 0.402 -0.028 Q 0.44 -0.028 0.482 -0.0575 Q 0.524 -0.08700000000000001 0.544 -0.149 Q 0.548 -0.162 0.5670000000000001 -0.162 Q 0.591 -0.162 0.591 -0.148 Q 0.591 -0.134 0.578 -0.1095 Q 0.5650000000000001 -0.085 0.542 -0.058 Q 0.519 -0.031 0.48 -0.0115 Q 0.441 0.008 0.397 0.008 Q 0.295 0.008 0.259 -0.053 Q 0.215 0.008 0.152 0.008 Q 0.105 0.008 0.07150000000000001 -0.0165 Q 0.038 -0.041 0.038 -0.08 Q 0.038 -0.115 0.06 -0.1365 Q 0.082 -0.158 0.11 -0.158 Q 0.133 -0.158 0.1465 -0.14400000000000002 Q 0.16 -0.13 0.16 -0.112 Q 0.16 -0.091 0.1455 -0.07050000000000001 Q 0.131 -0.05 0.106 -0.043000000000000003 Q 0.126 -0.028 0.154 -0.028 Q 0.181 -0.028 0.20450000000000002 -0.051500000000000004 Q 0.228 -0.075 0.23900000000000002 -0.11900000000000001 L 0.273 -0.256 Q 0.296 -0.34800000000000003 0.296 -0.366 Q 0.296 -0.41600000000000004 0.24 -0.41600000000000004 Q 0.202 -0.41600000000000004 0.16 -0.3865 Q 0.11800000000000001 -0.357 0.098 -0.295 Q 0.094 -0.28200000000000003 0.075 -0.28200000000000003 Q 0.051000000000000004 -0.28200000000000003 0.051000000000000004 -0.296 Q 0.051000000000000004 -0.31 0.064 -0.3345 Q 0.077 -0.359 0.1 -0.386 Q 0.123 -0.41300000000000003 0.162 -0.4325 Q 0.201 -0.452 0.245 -0.452 Q 0.34700000000000003 -0.452 0.383 -0.391 Q 0.427 -0.452 0.49 -0.452 Q 0.537 -0.452 0.5705 -0.4275 Q 0.604 -0.403 0.604 -0.364 Q 0.604 -0.329 0.582 -0.3075 Q 0.56 -0.28600000000000003 0.532 -0.28600000000000003 Q 0.509 -0.28600000000000003 0.4955 -0.3 Q 0.482 -0.314 0.482 -0.332 Q 0.482 -0.353 0.4965 -0.3735 Q 0.511 -0.394 0.536 -0.401 Z"/></g><g transform="translate(2.89151347826087,11.501865352173912)"><path fill="rgb(0,0,0)" stroke="none" paint-order="stroke fill markers" d=" M 0.19 -0.75 L 0.19 0.25 L 0.025 0.25 L 0.025 0.189 L 0.129 0.189 L 0.129 -0.6890000000000001 L 0.025 -0.6890000000000001 L 0.025 -0.75 L 0.19 -0.75 Z"/></g><g transform="translate(3.21095647826087,11.088973352173912) scale(0.7,0.7)"><path fill="rgb(0,0,0)" stroke="none" paint-order="stroke fill markers" d=" M 0.736 -0.675 L 0.757 -0.434 L 0.71 -0.434 Q 0.706 -0.47600000000000003 0.7030000000000001 -0.4985 Q 0.7000000000000001 -0.521 0.6895 -0.5505 Q 0.679 -0.58 0.663 -0.594 Q 0.647 -0.608 0.618 -0.618 Q 0.589 -0.628 0.547 -0.628 L 0.47100000000000003 -0.628 L 0.47100000000000003 -0.047 L 0.624 -0.047 L 0.624 0 Q 0.5700000000000001 -0.003 0.4 -0.003 Q 0.23 -0.003 0.176 0 L 0.176 -0.047 L 0.329 -0.047 L 0.329 -0.628 L 0.252 -0.628 Q 0.21 -0.628 0.1805 -0.6175 Q 0.151 -0.607 0.135 -0.593 Q 0.11900000000000001 -0.579 0.109 -0.55 Q 0.099 -0.521 0.0955 -0.4985 Q 0.092 -0.47600000000000003 0.089 -0.434 L 0.042 -0.434 L 0.063 -0.675 L 0.736 -0.675 Z"/></g><g transform="translate(3.21095647826087,11.749082352173913) scale(0.7,0.7)"><path fill="rgb(0,0,0)" stroke="none" paint-order="stroke fill markers" d=" M 0.229 -0.357 Q 0.151 -0.391 0.151 -0.46 Q 0.151 -0.519 0.20400000000000001 -0.5760000000000001 Q 0.257 -0.633 0.3385 -0.668 Q 0.42 -0.7030000000000001 0.501 -0.7030000000000001 Q 0.5650000000000001 -0.7030000000000001 0.596 -0.6880000000000001 Q 0.627 -0.673 0.627 -0.636 Q 0.627 -0.587 0.5805 -0.5545 Q 0.534 -0.522 0.503 -0.522 Q 0.484 -0.522 0.484 -0.535 Q 0.484 -0.541 0.489 -0.548 Q 0.497 -0.56 0.497 -0.5740000000000001 Q 0.497 -0.598 0.47500000000000003 -0.607 Q 0.453 -0.616 0.40700000000000003 -0.616 Q 0.34600000000000003 -0.616 0.317 -0.597 Q 0.302 -0.588 0.2915 -0.5665 Q 0.281 -0.545 0.281 -0.522 Q 0.281 -0.47800000000000004 0.326 -0.4505 Q 0.371 -0.423 0.448 -0.421 Q 0.47200000000000003 -0.421 0.47200000000000003 -0.40800000000000003 Q 0.47200000000000003 -0.391 0.435 -0.363 Q 0.398 -0.335 0.34800000000000003 -0.334 Q 0.297 -0.333 0.259 -0.3125 Q 0.221 -0.292 0.202 -0.264 Q 0.183 -0.23600000000000002 0.17450000000000002 -0.212 Q 0.166 -0.188 0.166 -0.171 Q 0.166 -0.122 0.212 -0.096 Q 0.258 -0.07 0.321 -0.07 Q 0.356 -0.07 0.385 -0.081 Q 0.41400000000000003 -0.092 0.4265 -0.1015 Q 0.439 -0.111 0.458 -0.13 Q 0.48 -0.152 0.5055000000000001 -0.1645 Q 0.531 -0.177 0.541 -0.179 Q 0.551 -0.181 0.556 -0.181 Q 0.5740000000000001 -0.181 0.5740000000000001 -0.168 Q 0.5740000000000001 -0.156 0.544 -0.1265 Q 0.514 -0.097 0.4685 -0.0645 Q 0.423 -0.032 0.356 -0.0075 Q 0.289 0.017 0.227 0.017 Q 0.183 0.017 0.14300000000000002 0.007 Q 0.10300000000000001 -0.003 0.0695 -0.033 Q 0.036000000000000004 -0.063 0.036000000000000004 -0.109 Q 0.036000000000000004 -0.128 0.044 -0.1525 Q 0.052000000000000005 -0.177 0.07050000000000001 -0.2115 Q 0.089 -0.246 0.1305 -0.28500000000000003 Q 0.17200000000000001 -0.324 0.229 -0.357 Z"/></g><g transform="translate(3.792692108695652,11.501865352173912)"><path fill="rgb(0,0,0)" stroke="none" paint-order="stroke fill markers" d=" M 0.645 -0.682 L 0.739 -0.067 Q 0.741 -0.054 0.7435 -0.051500000000000004 Q 0.746 -0.049 0.755 -0.048 Q 0.769 -0.047 0.794 -0.047 Q 0.81 -0.047 0.8165 -0.0465 Q 0.8230000000000001 -0.046 0.8285 -0.042 Q 0.834 -0.038 0.834 -0.029 Q 0.834 -0.016 0.8280000000000001 -0.009000000000000001 Q 0.8220000000000001 -0.002 0.8175 -0.001 Q 0.8130000000000001 0 0.806 0 Q 0.794 0 0.771 -0.001 Q 0.748 -0.002 0.736 -0.002 Q 0.724 -0.002 0.7010000000000001 -0.0025 Q 0.678 -0.003 0.667 -0.003 Q 0.65 -0.003 0.592 -0.0015 Q 0.534 0 0.518 0 Q 0.496 0 0.496 -0.018000000000000002 Q 0.496 -0.032 0.502 -0.0385 Q 0.508 -0.045 0.514 -0.046 Q 0.52 -0.047 0.533 -0.047 Q 0.5740000000000001 -0.047 0.598 -0.052000000000000005 L 0.5750000000000001 -0.198 L 0.305 -0.198 L 0.213 -0.058 Q 0.23500000000000001 -0.047 0.271 -0.047 Q 0.297 -0.047 0.297 -0.029 Q 0.297 0 0.27 0 Q 0.252 0 0.215 -0.0015 Q 0.178 -0.003 0.159 -0.003 Q 0.14300000000000002 -0.003 0.111 -0.0015 Q 0.079 0 0.064 0 Q 0.056 0 0.0505 -0.0055 Q 0.045 -0.011 0.045 -0.018000000000000002 Q 0.045 -0.031 0.051000000000000004 -0.038 Q 0.057 -0.045 0.062 -0.046 Q 0.067 -0.047 0.077 -0.047 Q 0.111 -0.047 0.132 -0.0535 Q 0.153 -0.06 0.1595 -0.0665 Q 0.166 -0.073 0.17400000000000002 -0.085 L 0.5670000000000001 -0.686 Q 0.577 -0.7020000000000001 0.5855 -0.7065 Q 0.594 -0.711 0.611 -0.711 Q 0.63 -0.711 0.636 -0.706 Q 0.642 -0.7010000000000001 0.645 -0.682 M 0.524 -0.533 L 0.336 -0.245 L 0.5680000000000001 -0.245 L 0.524 -0.533 Z"/></g><g transform="translate(4.662132108695652,11.501865352173912)"><path fill="rgb(0,0,0)" stroke="none" paint-order="stroke fill markers" d=" M 0.293 0.25 L 0.128 0.25 L 0.128 -0.75 L 0.293 -0.75 L 0.293 -0.6890000000000001 L 0.189 -0.6890000000000001 L 0.189 0.189 L 0.293 0.189 L 0.293 0.25 Z"/></g><g transform="translate(4.981575108695652,11.501865352173912)"><path fill="rgb(0,0,0)" stroke="none" paint-order="stroke fill markers" d=" M 0.536 -0.401 Q 0.516 -0.41600000000000004 0.488 -0.41600000000000004 Q 0.461 -0.41600000000000004 0.4375 -0.392 Q 0.41400000000000003 -0.368 0.403 -0.325 Q 0.4 -0.316 0.385 -0.257 Q 0.37 -0.198 0.368 -0.189 Q 0.34600000000000003 -0.099 0.34600000000000003 -0.078 Q 0.34600000000000003 -0.028 0.402 -0.028 Q 0.44 -0.028 0.482 -0.0575 Q 0.524 -0.08700000000000001 0.544 -0.149 Q 0.548 -0.162 0.5670000000000001 -0.162 Q 0.591 -0.162 0.591 -0.148 Q 0.591 -0.134 0.578 -0.1095 Q 0.5650000000000001 -0.085 0.542 -0.058 Q 0.519 -0.031 0.48 -0.0115 Q 0.441 0.008 0.397 0.008 Q 0.295 0.008 0.259 -0.053 Q 0.215 0.008 0.152 0.008 Q 0.105 0.008 0.07150000000000001 -0.0165 Q 0.038 -0.041 0.038 -0.08 Q 0.038 -0.115 0.06 -0.1365 Q 0.082 -0.158 0.11 -0.158 Q 0.133 -0.158 0.1465 -0.14400000000000002 Q 0.16 -0.13 0.16 -0.112 Q 0.16 -0.091 0.1455 -0.07050000000000001 Q 0.131 -0.05 0.106 -0.043000000000000003 Q 0.126 -0.028 0.154 -0.028 Q 0.181 -0.028 0.20450000000000002 -0.051500000000000004 Q 0.228 -0.075 0.23900000000000002 -0.11900000000000001 L 0.273 -0.256 Q 0.296 -0.34800000000000003 0.296 -0.366 Q 0.296 -0.41600000000000004 0.24 -0.41600000000000004 Q 0.202 -0.41600000000000004 0.16 -0.3865 Q 0.11800000000000001 -0.357 0.098 -0.295 Q 0.094 -0.28200000000000003 0.075 -0.28200000000000003 Q 0.051000000000000004 -0.28200000000000003 0.051000000000000004 -0.296 Q 0.051000000000000004 -0.31 0.064 -0.3345 Q 0.077 -0.359 0.1 -0.386 Q 0.123 -0.41300000000000003 0.162 -0.4325 Q 0.201 -0.452 0.245 -0.452 Q 0.34700000000000003 -0.452 0.383 -0.391 Q 0.427 -0.452 0.49 -0.452 Q 0.537 -0.452 0.5705 -0.4275 Q 0.604 -0.403 0.604 -0.364 Q 0.604 -0.329 0.582 -0.3075 Q 0.56 -0.28600000000000003 0.532 -0.28600000000000003 Q 0.509 -0.28600000000000003 0.4955 -0.3 Q 0.482 -0.314 0.482 -0.332 Q 0.482 -0.353 0.4965 -0.3735 Q 0.511 -0.394 0.536 -0.401 Z"/></g><g transform="translate(5.640602108695652,11.501865352173912)"><path fill="rgb(0,0,0)" stroke="none" paint-order="stroke fill markers" d=" M 0.19 -0.75 L 0.19 0.25 L 0.025 0.25 L 0.025 0.189 L 0.129 0.189 L 0.129 -0.6890000000000001 L 0.025 -0.6890000000000001 L 0.025 -0.75 L 0.19 -0.75 Z"/></g><g transform="translate(5.960045108695652,11.651865352173912) scale(0.7,0.7)"><path fill="rgb(0,0,0)" stroke="none" paint-order="stroke fill markers" d=" M 0.229 -0.357 Q 0.151 -0.391 0.151 -0.46 Q 0.151 -0.519 0.20400000000000001 -0.5760000000000001 Q 0.257 -0.633 0.3385 -0.668 Q 0.42 -0.7030000000000001 0.501 -0.7030000000000001 Q 0.5650000000000001 -0.7030000000000001 0.596 -0.6880000000000001 Q 0.627 -0.673 0.627 -0.636 Q 0.627 -0.587 0.5805 -0.5545 Q 0.534 -0.522 0.503 -0.522 Q 0.484 -0.522 0.484 -0.535 Q 0.484 -0.541 0.489 -0.548 Q 0.497 -0.56 0.497 -0.5740000000000001 Q 0.497 -0.598 0.47500000000000003 -0.607 Q 0.453 -0.616 0.40700000000000003 -0.616 Q 0.34600000000000003 -0.616 0.317 -0.597 Q 0.302 -0.588 0.2915 -0.5665 Q 0.281 -0.545 0.281 -0.522 Q 0.281 -0.47800000000000004 0.326 -0.4505 Q 0.371 -0.423 0.448 -0.421 Q 0.47200000000000003 -0.421 0.47200000000000003 -0.40800000000000003 Q 0.47200000000000003 -0.391 0.435 -0.363 Q 0.398 -0.335 0.34800000000000003 -0.334 Q 0.297 -0.333 0.259 -0.3125 Q 0.221 -0.292 0.202 -0.264 Q 0.183 -0.23600000000000002 0.17450000000000002 -0.212 Q 0.166 -0.188 0.166 -0.171 Q 0.166 -0.122 0.212 -0.096 Q 0.258 -0.07 0.321 -0.07 Q 0.356 -0.07 0.385 -0.081 Q 0.41400000000000003 -0.092 0.4265 -0.1015 Q 0.439 -0.111 0.458 -0.13 Q 0.48 -0.152 0.5055000000000001 -0.1645 Q 0.531 -0.177 0.541 -0.179 Q 0.551 -0.181 0.556 -0.181 Q 0.5740000000000001 -0.181 0.5740000000000001 -0.168 Q 0.5740000000000001 -0.156 0.544 -0.1265 Q 0.514 -0.097 0.4685 -0.0645 Q 0.423 -0.032 0.356 -0.0075 Q 0.289 0.017 0.227 0.017 Q 0.183 0.017 0.14300000000000002 0.007 Q 0.10300000000000001 -0.003 0.0695 -0.033 Q 0.036000000000000004 -0.063 0.036000000000000004 -0.109 Q 0.036000000000000004 -0.128 0.044 -0.1525 Q 0.052000000000000005 -0.177 0.07050000000000001 -0.2115 Q 0.089 -0.246 0.1305 -0.28500000000000003 Q 0.17200000000000001 -0.324 0.229 -0.357 Z"/></g><g transform="translate(6.662682419806764,11.501865352173912)"><path fill="rgb(0,0,0)" stroke="none" paint-order="stroke fill markers" d=" M 0.788 -0.332 L 0.105 -0.332 Q 0.064 -0.332 0.064 -0.362 Q 0.064 -0.393 0.11 -0.393 L 0.783 -0.393 Q 0.8290000000000001 -0.393 0.8290000000000001 -0.362 Q 0.8290000000000001 -0.332 0.788 -0.332 M 0.783 -0.108 L 0.11 -0.108 Q 0.064 -0.108 0.064 -0.139 Q 0.064 -0.169 0.105 -0.169 L 0.788 -0.169 Q 0.8290000000000001 -0.169 0.8290000000000001 -0.139 Q 0.8290000000000001 -0.108 0.783 -0.108 Z"/></g><g transform="translate(7.834901030917875,11.501865352173912)"><path fill="rgb(0,0,0)" stroke="none" paint-order="stroke fill markers" d=" M 0.354 -0.623 L 0.354 -0.047 L 0.494 -0.047 L 0.494 0 Q 0.45 -0.003 0.295 -0.003 Q 0.14 -0.003 0.096 0 L 0.096 -0.047 L 0.23500000000000001 -0.047 L 0.23500000000000001 -0.5640000000000001 Q 0.17300000000000001 -0.544 0.105 -0.544 L 0.085 -0.544 L 0.085 -0.591 L 0.105 -0.591 Q 0.229 -0.591 0.306 -0.648 Q 0.315 -0.655 0.328 -0.655 Q 0.34600000000000003 -0.655 0.35000000000000003 -0.6485 Q 0.354 -0.642 0.354 -0.623 Z"/></g></g><g transform="scale(23,23)"><g transform="translate(18.565217391304348,11.501865352173912)"><path fill="rgb(0,0,0)" stroke="none" paint-order="stroke fill markers" d=" M 0.293 0.25 L 0.128 0.25 L 0.128 -0.75 L 0.293 -0.75 L 0.293 -0.6890000000000001 L 0.189 -0.6890000000000001 L 0.189 0.189 L 0.293 0.189 L 0.293 0.25 Z"/></g><g transform="translate(18.884660391304347,11.501865352173912)"><path fill="rgb(0,0,0)" stroke="none" paint-order="stroke fill markers" d=" M 0.536 -0.401 Q 0.516 -0.41600000000000004 0.488 -0.41600000000000004 Q 0.461 -0.41600000000000004 0.4375 -0.392 Q 0.41400000000000003 -0.368 0.403 -0.325 Q 0.4 -0.316 0.385 -0.257 Q 0.37 -0.198 0.368 -0.189 Q 0.34600000000000003 -0.099 0.34600000000000003 -0.078 Q 0.34600000000000003 -0.028 0.402 -0.028 Q 0.44 -0.028 0.482 -0.0575 Q 0.524 -0.08700000000000001 0.544 -0.149 Q 0.548 -0.162 0.5670000000000001 -0.162 Q 0.591 -0.162 0.591 -0.148 Q 0.591 -0.134 0.578 -0.1095 Q 0.5650000000000001 -0.085 0.542 -0.058 Q 0.519 -0.031 0.48 -0.0115 Q 0.441 0.008 0.397 0.008 Q 0.295 0.008 0.259 -0.053 Q 0.215 0.008 0.152 0.008 Q 0.105 0.008 0.07150000000000001 -0.0165 Q 0.038 -0.041 0.038 -0.08 Q 0.038 -0.115 0.06 -0.1365 Q 0.082 -0.158 0.11 -0.158 Q 0.133 -0.158 0.1465 -0.14400000000000002 Q 0.16 -0.13 0.16 -0.112 Q 0.16 -0.091 0.1455 -0.07050000000000001 Q 0.131 -0.05 0.106 -0.043000000000000003 Q 0.126 -0.028 0.154 -0.028 Q 0.181 -0.028 0.20450000000000002 -0.051500000000000004 Q 0.228 -0.075 0.23900000000000002 -0.11900000000000001 L 0.273 -0.256 Q 0.296 -0.34800000000000003 0.296 -0.366 Q 0.296 -0.41600000000000004 0.24 -0.41600000000000004 Q 0.202 -0.41600000000000004 0.16 -0.3865 Q 0.11800000000000001 -0.357 0.098 -0.295 Q 0.094 -0.28200000000000003 0.075 -0.28200000000000003 Q 0.051000000000000004 -0.28200000000000003 0.051000000000000004 -0.296 Q 0.051000000000000004 -0.31 0.064 -0.3345 Q 0.077 -0.359 0.1 -0.386 Q 0.123 -0.41300000000000003 0.162 -0.4325 Q 0.201 -0.452 0.245 -0.452 Q 0.34700000000000003 -0.452 0.383 -0.391 Q 0.427 -0.452 0.49 -0.452 Q 0.537 -0.452 0.5705 -0.4275 Q 0.604 -0.403 0.604 -0.364 Q 0.604 -0.329 0.582 -0.3075 Q 0.56 -0.28600000000000003 0.532 -0.28600000000000003 Q 0.509 -0.28600000000000003 0.4955 -0.3 Q 0.482 -0.314 0.482 -0.332 Q 0.482 -0.353 0.4965 -0.3735 Q 0.511 -0.394 0.536 -0.401 Z"/></g><g transform="translate(19.543687391304346,11.501865352173912)"><path fill="rgb(0,0,0)" stroke="none" paint-order="stroke fill markers" d=" M 0.19 -0.75 L 0.19 0.25 L 0.025 0.25 L 0.025 0.189 L 0.129 0.189 L 0.129 -0.6890000000000001 L 0.025 -0.6890000000000001 L 0.025 -0.75 L 0.19 -0.75 Z"/></g><g transform="translate(19.863130391304345,11.088973352173912) scale(0.7,0.7)"><path fill="rgb(0,0,0)" stroke="none" paint-order="stroke fill markers" d=" M 0.736 -0.675 L 0.757 -0.434 L 0.71 -0.434 Q 0.706 -0.47600000000000003 0.7030000000000001 -0.4985 Q 0.7000000000000001 -0.521 0.6895 -0.5505 Q 0.679 -0.58 0.663 -0.594 Q 0.647 -0.608 0.618 -0.618 Q 0.589 -0.628 0.547 -0.628 L 0.47100000000000003 -0.628 L 0.47100000000000003 -0.047 L 0.624 -0.047 L 0.624 0 Q 0.5700000000000001 -0.003 0.4 -0.003 Q 0.23 -0.003 0.176 0 L 0.176 -0.047 L 0.329 -0.047 L 0.329 -0.628 L 0.252 -0.628 Q 0.21 -0.628 0.1805 -0.6175 Q 0.151 -0.607 0.135 -0.593 Q 0.11900000000000001 -0.579 0.109 -0.55 Q 0.099 -0.521 0.0955 -0.4985 Q 0.092 -0.47600000000000003 0.089 -0.434 L 0.042 -0.434 L 0.063 -0.675 L 0.736 -0.675 Z"/></g><g transform="translate(19.863130391304345,11.749082352173913) scale(0.7,0.7)"><path fill="rgb(0,0,0)" stroke="none" paint-order="stroke fill markers" d=" M 0.352 -0.20800000000000002 Q 0.334 -0.149 0.305 -0.077 Q 0.276 -0.005 0.268 0.006 Q 0.252 0.026000000000000002 0.22 0.043000000000000003 Q 0.188 0.06 0.165 0.06 Q 0.147 0.06 0.147 0.048 Q 0.147 0.043000000000000003 0.153 0.032 Q 0.192 -0.06 0.2175 -0.1335 Q 0.243 -0.20700000000000002 0.2725 -0.3365 Q 0.302 -0.466 0.311 -0.599 Q 0.251 -0.597 0.215 -0.587 Q 0.184 -0.58 0.17250000000000001 -0.5710000000000001 Q 0.161 -0.562 0.152 -0.535 Q 0.14200000000000002 -0.505 0.10300000000000001 -0.4825 Q 0.064 -0.46 0.04 -0.46 Q 0.022 -0.46 0.022 -0.47300000000000003 Q 0.022 -0.482 0.03 -0.499 Q 0.038 -0.516 0.056 -0.542 Q 0.074 -0.5680000000000001 0.113 -0.5965 Q 0.152 -0.625 0.20400000000000001 -0.647 Q 0.249 -0.665 0.2995 -0.674 Q 0.35000000000000003 -0.683 0.385 -0.6845 Q 0.42 -0.686 0.491 -0.686 Q 0.555 -0.686 0.5845 -0.685 Q 0.614 -0.684 0.653 -0.679 Q 0.6920000000000001 -0.674 0.727 -0.663 Q 0.846 -0.626 0.846 -0.531 Q 0.846 -0.481 0.8095 -0.4205 Q 0.773 -0.36 0.7000000000000001 -0.311 Q 0.646 -0.275 0.5885 -0.251 Q 0.531 -0.227 0.483 -0.2185 Q 0.435 -0.21 0.41350000000000003 -0.20800000000000002 Q 0.392 -0.20600000000000002 0.374 -0.20600000000000002 Q 0.359 -0.20600000000000002 0.352 -0.20800000000000002 M 0.437 -0.599 L 0.41400000000000003 -0.445 Q 0.41000000000000003 -0.417 0.393 -0.34800000000000003 Q 0.393 -0.34700000000000003 0.3895 -0.3335 Q 0.386 -0.32 0.3795 -0.2955 Q 0.373 -0.271 0.366 -0.249 Q 0.41300000000000003 -0.293 0.47600000000000003 -0.293 Q 0.489 -0.293 0.511 -0.295 Q 0.533 -0.297 0.5750000000000001 -0.309 Q 0.617 -0.321 0.646 -0.34 Q 0.678 -0.362 0.6970000000000001 -0.4 Q 0.716 -0.438 0.716 -0.46900000000000003 Q 0.716 -0.505 0.6930000000000001 -0.532 Q 0.67 -0.559 0.6315000000000001 -0.5725 Q 0.593 -0.586 0.5525 -0.5925 Q 0.512 -0.599 0.46900000000000003 -0.599 L 0.437 -0.599 Z"/></g><g transform="translate(20.45176942173913,11.501865352173912)"><path fill="rgb(0,0,0)" stroke="none" paint-order="stroke fill markers" d=" M 0.163 -0.067 L 0.306 -0.637 Q 0.264 -0.639 0.245 -0.639 Q 0.227 -0.639 0.22 -0.6395000000000001 Q 0.213 -0.64 0.20800000000000002 -0.644 Q 0.203 -0.648 0.203 -0.657 Q 0.203 -0.671 0.209 -0.6775 Q 0.215 -0.684 0.221 -0.685 Q 0.227 -0.686 0.24 -0.686 L 0.641 -0.686 Q 0.744 -0.686 0.799 -0.648 Q 0.854 -0.61 0.854 -0.547 Q 0.854 -0.488 0.8005 -0.433 Q 0.747 -0.378 0.637 -0.358 Q 0.711 -0.352 0.7575000000000001 -0.317 Q 0.804 -0.28200000000000003 0.804 -0.221 Q 0.804 -0.186 0.7855 -0.1485 Q 0.767 -0.111 0.7315 -0.077 Q 0.6960000000000001 -0.043000000000000003 0.6355000000000001 -0.021500000000000002 Q 0.5750000000000001 0 0.501 0 L 0.077 0 Q 0.043000000000000003 0 0.043000000000000003 -0.018000000000000002 Q 0.043000000000000003 -0.038 0.055 -0.045 Q 0.059000000000000004 -0.047 0.08700000000000001 -0.047 Q 0.123 -0.047 0.14 -0.048 Q 0.153 -0.049 0.1565 -0.052000000000000005 Q 0.16 -0.055 0.163 -0.067 M 0.431 -0.621 L 0.369 -0.375 L 0.527 -0.375 Q 0.5750000000000001 -0.375 0.614 -0.3925 Q 0.653 -0.41000000000000003 0.6745 -0.4375 Q 0.6960000000000001 -0.465 0.7075 -0.4945 Q 0.719 -0.524 0.719 -0.552 Q 0.719 -0.639 0.618 -0.639 L 0.46900000000000003 -0.639 Q 0.451 -0.639 0.442 -0.638 Q 0.435 -0.637 0.431 -0.621 M 0.312 -0.047 L 0.47200000000000003 -0.047 Q 0.522 -0.047 0.5615 -0.0655 Q 0.601 -0.084 0.6225 -0.1135 Q 0.644 -0.14300000000000002 0.6545 -0.17450000000000002 Q 0.665 -0.20600000000000002 0.665 -0.23700000000000002 Q 0.665 -0.339 0.555 -0.339 L 0.36 -0.339 L 0.28800000000000003 -0.048 Q 0.295 -0.047 0.312 -0.047 Z"/></g><g transform="translate(21.31817342173913,11.501865352173912)"><path fill="rgb(0,0,0)" stroke="none" paint-order="stroke fill markers" d=" M 0.293 0.25 L 0.128 0.25 L 0.128 -0.75 L 0.293 -0.75 L 0.293 -0.6890000000000001 L 0.189 -0.6890000000000001 L 0.189 0.189 L 0.293 0.189 L 0.293 0.25 Z"/></g><g transform="translate(21.63761642173913,11.501865352173912)"><path fill="rgb(0,0,0)" stroke="none" paint-order="stroke fill markers" d=" M 0.536 -0.401 Q 0.516 -0.41600000000000004 0.488 -0.41600000000000004 Q 0.461 -0.41600000000000004 0.4375 -0.392 Q 0.41400000000000003 -0.368 0.403 -0.325 Q 0.4 -0.316 0.385 -0.257 Q 0.37 -0.198 0.368 -0.189 Q 0.34600000000000003 -0.099 0.34600000000000003 -0.078 Q 0.34600000000000003 -0.028 0.402 -0.028 Q 0.44 -0.028 0.482 -0.0575 Q 0.524 -0.08700000000000001 0.544 -0.149 Q 0.548 -0.162 0.5670000000000001 -0.162 Q 0.591 -0.162 0.591 -0.148 Q 0.591 -0.134 0.578 -0.1095 Q 0.5650000000000001 -0.085 0.542 -0.058 Q 0.519 -0.031 0.48 -0.0115 Q 0.441 0.008 0.397 0.008 Q 0.295 0.008 0.259 -0.053 Q 0.215 0.008 0.152 0.008 Q 0.105 0.008 0.07150000000000001 -0.0165 Q 0.038 -0.041 0.038 -0.08 Q 0.038 -0.115 0.06 -0.1365 Q 0.082 -0.158 0.11 -0.158 Q 0.133 -0.158 0.1465 -0.14400000000000002 Q 0.16 -0.13 0.16 -0.112 Q 0.16 -0.091 0.1455 -0.07050000000000001 Q 0.131 -0.05 0.106 -0.043000000000000003 Q 0.126 -0.028 0.154 -0.028 Q 0.181 -0.028 0.20450000000000002 -0.051500000000000004 Q 0.228 -0.075 0.23900000000000002 -0.11900000000000001 L 0.273 -0.256 Q 0.296 -0.34800000000000003 0.296 -0.366 Q 0.296 -0.41600000000000004 0.24 -0.41600000000000004 Q 0.202 -0.41600000000000004 0.16 -0.3865 Q 0.11800000000000001 -0.357 0.098 -0.295 Q 0.094 -0.28200000000000003 0.075 -0.28200000000000003 Q 0.051000000000000004 -0.28200000000000003 0.051000000000000004 -0.296 Q 0.051000000000000004 -0.31 0.064 -0.3345 Q 0.077 -0.359 0.1 -0.386 Q 0.123 -0.41300000000000003 0.162 -0.4325 Q 0.201 -0.452 0.245 -0.452 Q 0.34700000000000003 -0.452 0.383 -0.391 Q 0.427 -0.452 0.49 -0.452 Q 0.537 -0.452 0.5705 -0.4275 Q 0.604 -0.403 0.604 -0.364 Q 0.604 -0.329 0.582 -0.3075 Q 0.56 -0.28600000000000003 0.532 -0.28600000000000003 Q 0.509 -0.28600000000000003 0.4955 -0.3 Q 0.482 -0.314 0.482 -0.332 Q 0.482 -0.353 0.4965 -0.3735 Q 0.511 -0.394 0.536 -0.401 Z"/></g><g transform="translate(22.296643421739127,11.501865352173912)"><path fill="rgb(0,0,0)" stroke="none" paint-order="stroke fill markers" d=" M 0.19 -0.75 L 0.19 0.25 L 0.025 0.25 L 0.025 0.189 L 0.129 0.189 L 0.129 -0.6890000000000001 L 0.025 -0.6890000000000001 L 0.025 -0.75 L 0.19 -0.75 Z"/></g><g transform="translate(22.616086421739126,11.651865352173912) scale(0.7,0.7)"><path fill="rgb(0,0,0)" stroke="none" paint-order="stroke fill markers" d=" M 0.352 -0.20800000000000002 Q 0.334 -0.149 0.305 -0.077 Q 0.276 -0.005 0.268 0.006 Q 0.252 0.026000000000000002 0.22 0.043000000000000003 Q 0.188 0.06 0.165 0.06 Q 0.147 0.06 0.147 0.048 Q 0.147 0.043000000000000003 0.153 0.032 Q 0.192 -0.06 0.2175 -0.1335 Q 0.243 -0.20700000000000002 0.2725 -0.3365 Q 0.302 -0.466 0.311 -0.599 Q 0.251 -0.597 0.215 -0.587 Q 0.184 -0.58 0.17250000000000001 -0.5710000000000001 Q 0.161 -0.562 0.152 -0.535 Q 0.14200000000000002 -0.505 0.10300000000000001 -0.4825 Q 0.064 -0.46 0.04 -0.46 Q 0.022 -0.46 0.022 -0.47300000000000003 Q 0.022 -0.482 0.03 -0.499 Q 0.038 -0.516 0.056 -0.542 Q 0.074 -0.5680000000000001 0.113 -0.5965 Q 0.152 -0.625 0.20400000000000001 -0.647 Q 0.249 -0.665 0.2995 -0.674 Q 0.35000000000000003 -0.683 0.385 -0.6845 Q 0.42 -0.686 0.491 -0.686 Q 0.555 -0.686 0.5845 -0.685 Q 0.614 -0.684 0.653 -0.679 Q 0.6920000000000001 -0.674 0.727 -0.663 Q 0.846 -0.626 0.846 -0.531 Q 0.846 -0.481 0.8095 -0.4205 Q 0.773 -0.36 0.7000000000000001 -0.311 Q 0.646 -0.275 0.5885 -0.251 Q 0.531 -0.227 0.483 -0.2185 Q 0.435 -0.21 0.41350000000000003 -0.20800000000000002 Q 0.392 -0.20600000000000002 0.374 -0.20600000000000002 Q 0.359 -0.20600000000000002 0.352 -0.20800000000000002 M 0.437 -0.599 L 0.41400000000000003 -0.445 Q 0.41000000000000003 -0.417 0.393 -0.34800000000000003 Q 0.393 -0.34700000000000003 0.3895 -0.3335 Q 0.386 -0.32 0.3795 -0.2955 Q 0.373 -0.271 0.366 -0.249 Q 0.41300000000000003 -0.293 0.47600000000000003 -0.293 Q 0.489 -0.293 0.511 -0.295 Q 0.533 -0.297 0.5750000000000001 -0.309 Q 0.617 -0.321 0.646 -0.34 Q 0.678 -0.362 0.6970000000000001 -0.4 Q 0.716 -0.438 0.716 -0.46900000000000003 Q 0.716 -0.505 0.6930000000000001 -0.532 Q 0.67 -0.559 0.6315000000000001 -0.5725 Q 0.593 -0.586 0.5525 -0.5925 Q 0.512 -0.599 0.46900000000000003 -0.599 L 0.437 -0.599 Z"/></g><g transform="translate(23.460764932850235,11.501865352173912)"><path fill="rgb(0,0,0)" stroke="none" paint-order="stroke fill markers" d=" M 0.788 -0.332 L 0.105 -0.332 Q 0.064 -0.332 0.064 -0.362 Q 0.064 -0.393 0.11 -0.393 L 0.783 -0.393 Q 0.8290000000000001 -0.393 0.8290000000000001 -0.362 Q 0.8290000000000001 -0.332 0.788 -0.332 M 0.783 -0.108 L 0.11 -0.108 Q 0.064 -0.108 0.064 -0.139 Q 0.064 -0.169 0.105 -0.169 L 0.788 -0.169 Q 0.8290000000000001 -0.169 0.8290000000000001 -0.139 Q 0.8290000000000001 -0.108 0.783 -0.108 Z"/></g><g transform="translate(24.632983543961345,11.501865352173912)"><path fill="rgb(0,0,0)" stroke="none" paint-order="stroke fill markers" d=" M 0.354 -0.623 L 0.354 -0.047 L 0.494 -0.047 L 0.494 0 Q 0.45 -0.003 0.295 -0.003 Q 0.14 -0.003 0.096 0 L 0.096 -0.047 L 0.23500000000000001 -0.047 L 0.23500000000000001 -0.5640000000000001 Q 0.17300000000000001 -0.544 0.105 -0.544 L 0.085 -0.544 L 0.085 -0.591 L 0.105 -0.591 Q 0.229 -0.591 0.306 -0.648 Q 0.315 -0.655 0.328 -0.655 Q 0.34600000000000003 -0.655 0.35000000000000003 -0.6485 Q 0.354 -0.642 0.354 -0.623 Z"/></g></g><path fill="none" stroke="rgb(0,153,255)" paint-order="fill stroke markers" d=" M 168.65415335736623 66.87702620687094 C 153.9838193321495 52.206692181654205 118.3058528293008 64.09934768260376 88.96518477886735 93.44001573303726 C 59.6245167284339 122.78068378347074 47.731861227484345 158.45865028631943 62.40219525270108 173.1289843115362 C 77.07252927791781 187.79931833675292 112.75049578076647 175.90666283580336 142.09116383119994 146.56599478536987 C 171.4318318816334 117.2253267349364 183.32448738258296 81.5473602320877 168.65415335736623 66.87702620687094 Z" stroke-opacity="0.6980392156862745" stroke-linecap="round" stroke-linejoin="round" stroke-miterlimit="10" stroke-width="2.5"/><path fill="none" stroke="rgb(0,153,0)" paint-order="fill stroke markers" d=" M 544.311553808155 66.87702620687057 C 529.6412197829383 52.20669218165372 493.9632532800893 64.09934768260338 464.62258522965567 93.44001573303706 C 435.281917179222 122.78068378347075 423.38926167827236 158.4586502863197 438.0595957034892 173.12898431153656 C 452.729929728706 187.7993183367534 488.40789623155496 175.90666283580376 517.7485642819886 146.56599478537007 C 547.0892323324223 117.22532673493637 558.981887833372 81.54736023208743 544.311553808155 66.87702620687057 Z" stroke-opacity="0.6980392156862745" stroke-linecap="round" stroke-linejoin="round" stroke-miterlimit="10" stroke-width="2.5"/><path fill="none" stroke="rgb(0,0,0)" paint-order="fill stroke markers" d=" M 261.2622088655143 121.50563486100671 L 333.6710706246637 120.28867920118908" stroke-opacity="0.6980392156862745" stroke-linecap="round" stroke-linejoin="round" stroke-miterlimit="10" stroke-width="2.5"/><path fill="rgb(0,0,0)" stroke="none" paint-order="stroke fill markers" fill-rule="evenodd" d=" M 350.66867017280197 120.00300525920356 L 333.7424891101601 124.53807908822365 L 333.5996521391673 116.03927931415451 Z" fill-opacity="0.6980392156862745"/><g transform="scale(23,23)"><g transform="translate(12.91304347826087,4.555676217391304)"><path fill="rgb(0,0,0)" stroke="none" paint-order="stroke fill markers" d=" M 0.362 -0.302 L 0.299 -0.049 Q 0.341 -0.047 0.36 -0.047 Q 0.377 -0.047 0.384 -0.0465 Q 0.391 -0.046 0.396 -0.0415 Q 0.401 -0.037 0.401 -0.028 Q 0.401 0 0.372 0 Q 0.36 0 0.3335 -0.001 Q 0.307 -0.002 0.294 -0.002 Q 0.28200000000000003 -0.002 0.256 -0.0025 Q 0.23 -0.003 0.217 -0.003 Q 0.20400000000000001 -0.003 0.179 -0.0025 Q 0.154 -0.002 0.14100000000000001 -0.002 Q 0.128 -0.002 0.10300000000000001 -0.001 Q 0.078 0 0.065 0 Q 0.043000000000000003 0 0.043000000000000003 -0.018000000000000002 Q 0.043000000000000003 -0.038 0.056 -0.044 Q 0.059000000000000004 -0.047 0.08700000000000001 -0.047 Q 0.123 -0.047 0.14 -0.048 Q 0.153 -0.049 0.1565 -0.052000000000000005 Q 0.16 -0.055 0.163 -0.067 L 0.306 -0.637 Q 0.264 -0.639 0.245 -0.639 Q 0.228 -0.639 0.221 -0.6395000000000001 Q 0.214 -0.64 0.2085 -0.644 Q 0.203 -0.648 0.203 -0.657 Q 0.203 -0.671 0.209 -0.6775 Q 0.215 -0.684 0.221 -0.685 Q 0.227 -0.686 0.24 -0.686 L 0.625 -0.686 Q 0.727 -0.686 0.788 -0.6465 Q 0.849 -0.607 0.849 -0.532 Q 0.849 -0.44 0.761 -0.371 Q 0.673 -0.302 0.539 -0.302 L 0.362 -0.302 M 0.436 -0.621 L 0.366 -0.343 L 0.503 -0.343 Q 0.616 -0.343 0.659 -0.398 Q 0.683 -0.429 0.6960000000000001 -0.484 Q 0.709 -0.539 0.709 -0.56 Q 0.709 -0.639 0.578 -0.639 L 0.47400000000000003 -0.639 Q 0.456 -0.639 0.447 -0.638 Q 0.44 -0.637 0.436 -0.621 Z"/></g></g><path fill="rgb(102,204,255)" stroke="none" paint-order="stroke fill markers" d=" M 119.52817430503364 120.00300525920356 C 119.52817430503364 122.21214425852673 117.73731330435682 124.00300525920356 115.52817430503364 124.00300525920356 C 113.31903530571047 124.00300525920356 111.52817430503364 122.21214425852673 111.52817430503364 120.00300525920356 C 111.52817430503364 117.79386625988039 113.31903530571047 116.00300525920356 115.52817430503364 116.00300525920356 C 117.73731330435682 116.00300525920356 119.52817430503364 117.79386625988039 119.52817430503364 120.00300525920356 Z" fill-opacity="1"/><path fill="none" stroke="rgb(0,0,0)" paint-order="fill stroke markers" d=" M 119.52817430503364 120.00300525920356 C 119.52817430503364 122.21214425852673 117.73731330435682 124.00300525920356 115.52817430503364 124.00300525920356 C 113.31903530571047 124.00300525920356 111.52817430503364 122.21214425852673 111.52817430503364 120.00300525920356 C 111.52817430503364 117.79386625988039 113.31903530571047 116.00300525920356 115.52817430503364 116.00300525920356 C 117.73731330435682 116.00300525920356 119.52817430503364 117.79386625988039 119.52817430503364 120.00300525920356 Z" stroke-opacity="1" stroke-linecap="round" stroke-linejoin="round" stroke-miterlimit="10"/><path fill="rgb(102,204,255)" stroke="none" paint-order="stroke fill markers" d=" M 495.185574755822 120.00300525920356 C 495.185574755822 122.21214425852673 493.3947137551452 124.00300525920356 491.185574755822 124.00300525920356 C 488.97643575649886 124.00300525920356 487.185574755822 122.21214425852673 487.185574755822 120.00300525920356 C 487.185574755822 117.79386625988039 488.97643575649886 116.00300525920356 491.185574755822 116.00300525920356 C 493.3947137551452 116.00300525920356 495.185574755822 117.79386625988039 495.185574755822 120.00300525920356 Z" fill-opacity="1"/><path fill="none" stroke="rgb(0,0,0)" paint-order="fill stroke markers" d=" M 495.185574755822 120.00300525920356 C 495.185574755822 122.21214425852673 493.3947137551452 124.00300525920356 491.185574755822 124.00300525920356 C 488.97643575649886 124.00300525920356 487.185574755822 122.21214425852673 487.185574755822 120.00300525920356 C 487.185574755822 117.79386625988039 488.97643575649886 116.00300525920356 491.185574755822 116.00300525920356 C 493.3947137551452 116.00300525920356 495.185574755822 117.79386625988039 495.185574755822 120.00300525920356 Z" stroke-opacity="1" stroke-linecap="round" stroke-linejoin="round" stroke-miterlimit="10"/></g></g></svg>