<svg version="1.1" xmlns="http://www.w3.org/2000/svg" xmlns:xlink="http://www.w3.org/1999/xlink" width="609" height="275"><defs><clipPath id="hOoOiNzrMRnM"><path fill="none" stroke="none" d=" M 0 0 L 609 0 L 609 275 L 0 275 L 0 0 Z"/></clipPath></defs><g transform="scale(1,1)" clip-path="url(#hOoOiNzrMRnM)"><g><path fill="none" stroke="rgb(224,224,224)" paint-order="fill stroke markers" d=" M 422.2253944402701 231.70022539444022 L 196.83095416979705 231.70022539444022" stroke-opacity="1" stroke-linecap="round" stroke-linejoin="round" stroke-miterlimit="10" stroke-width="1.5"/><path fill="none" stroke="rgb(224,224,224)" paint-order="fill stroke markers" d=" M 422.2253944402701 194.13448534936134 L 196.83095416979705 194.13448534936134" stroke-opacity="1" stroke-linecap="round" stroke-linejoin="round" stroke-miterlimit="10" stroke-width="1.5"/><path fill="none" stroke="rgb(224,224,224)" paint-order="fill stroke markers" d=" M 422.2253944402701 156.56874530428246 L 196.83095416979705 156.56874530428246" stroke-opacity="1" stroke-linecap="round" stroke-linejoin="round" stroke-miterlimit="10" stroke-width="1.5"/><path fill="none" stroke="rgb(224,224,224)" paint-order="fill stroke markers" d=" M 422.2253944402701 119.00300525920358 L 196.83095416979705 119.00300525920358" stroke-opacity="1" stroke-linecap="round" stroke-linejoin="round" stroke-miterlimit="10" stroke-width="1.5"/><path fill="none" stroke="rgb(224,224,224)" paint-order="fill stroke markers" d=" M 422.2253944402701 81.4372652141247 L 196.83095416979705 81.4372652141247" stroke-opacity="1" stroke-linecap="round" stroke-linejoin="round" stroke-miterlimit="10" stroke-width="1.5"/><path fill="none" stroke="rgb(224,224,224)" paint-order="fill stroke markers" d=" M 422.2253944402701 43.87152516904581 L 196.83095416979705 43.87152516904581" stroke-opacity="1" stroke-linecap="round" stroke-linejoin="round" stroke-miterlimit="10" stroke-width="1.5"/><path fill="none" stroke="rgb(224,224,224)" paint-order="fill stroke markers" d=" M 422.2253944402701 6.305785123966928 L 196.83095416979705 6.305785123966928" stroke-opacity="1" stroke-linecap="round" stroke-linejoin="round" stroke-miterlimit="10" stroke-width="1.5"/><path fill="none" stroke="rgb(224,224,224)" paint-order="fill stroke markers" d=" M 196.83095416979705 231.70022539444022 L 196.83095416979705 6.305785123966928" stroke-opacity="1" stroke-linecap="round" stroke-linejoin="round" stroke-miterlimit="10" stroke-width="1.5"/><path fill="none" stroke="rgb(224,224,224)" paint-order="fill stroke markers" d=" M 234.3966942148759 231.70022539444022 L 234.3966942148759 6.305785123966928" stroke-opacity="1" stroke-linecap="round" stroke-linejoin="round" stroke-miterlimit="10" stroke-width="1.5"/><path fill="none" stroke="rgb(224,224,224)" paint-order="fill stroke markers" d=" M 271.96243425995476 231.70022539444022 L 271.96243425995476 6.305785123966928" stroke-opacity="1" stroke-linecap="round" stroke-linejoin="round" stroke-miterlimit="10" stroke-width="1.5"/><path fill="none" stroke="rgb(224,224,224)" paint-order="fill stroke markers" d=" M 309.5281743050336 231.70022539444022 L 309.5281743050336 6.305785123966928" stroke-opacity="1" stroke-linecap="round" stroke-linejoin="round" stroke-miterlimit="10" stroke-width="1.5"/><path fill="none" stroke="rgb(224,224,224)" paint-order="fill stroke markers" d=" M 347.0939143501124 231.70022539444022 L 347.0939143501124 6.305785123966928" stroke-opacity="1" stroke-linecap="round" stroke-linejoin="round" stroke-miterlimit="10" stroke-width="1.5"/><path fill="none" stroke="rgb(224,224,224)" paint-order="fill stroke markers" d=" M 384.6596543951913 231.70022539444022 L 384.6596543951913 6.305785123966928" stroke-opacity="1" stroke-linecap="round" stroke-linejoin="round" stroke-miterlimit="10" stroke-width="1.5"/><path fill="none" stroke="rgb(224,224,224)" paint-order="fill stroke markers" d=" M 422.2253944402701 231.70022539444022 L 422.2253944402701 6.305785123966928" stroke-opacity="1" stroke-linecap="round" stroke-linejoin="round" stroke-miterlimit="10" stroke-width="1.5"/><path fill="rgb(102,0,204)" stroke="none" paint-order="stroke fill markers" fill-rule="evenodd" d=" M 196.83095416979705 231.70022539444022 L 422.2253944402701 231.70022539444022 L 422.2253944402701 6.305785123966928 L 196.83095416979705 6.305785123966928 Z" fill-opacity="0.09803921568627451"/><path fill="none" stroke="rgb(102,0,204)" paint-order="fill stroke markers" d=" M 196.83095416979705 231.70022539444022 L 422.2253944402701 231.70022539444022" stroke-opacity="0.6980392156862745" stroke-linecap="round" stroke-linejoin="round" stroke-miterlimit="10" stroke-width="1.5"/><path fill="none" stroke="rgb(102,0,204)" paint-order="fill stroke markers" d=" M 422.2253944402701 231.70022539444022 L 422.2253944402701 6.305785123966928" stroke-opacity="0.6980392156862745" stroke-linecap="round" stroke-linejoin="round" stroke-miterlimit="10" stroke-width="1.5"/><path fill="none" stroke="rgb(102,0,204)" paint-order="fill stroke markers" d=" M 422.2253944402701 6.305785123966928 L 196.83095416979705 6.305785123966928" stroke-opacity="0.6980392156862745" stroke-linecap="round" stroke-linejoin="round" stroke-miterlimit="10" stroke-width="1.5"/><path fill="none" stroke="rgb(102,0,204)" paint-order="fill stroke markers" d=" M 196.83095416979705 6.305785123966928 L 196.83095416979705 231.70022539444022" stroke-opacity="0.6980392156862745" stroke-linecap="round" stroke-linejoin="round" stroke-miterlimit="10" stroke-width="1.5"/><path fill="none" stroke="rgb(0,0,0)" paint-order="fill stroke markers" d=" M 309.5281743050336 119.00300525920358 L 309.5281743050336 97.4372652141247" stroke-opacity="0.6980392156862745" stroke-linecap="round" stroke-linejoin="round" stroke-miterlimit="10" stroke-width="2"/><path fill="rgb(0,0,0)" stroke="none" paint-order="stroke fill markers" fill-rule="evenodd" d=" M 309.5281743050336 81.4372652141247 L 313.5281743050336 97.4372652141247 L 305.5281743050336 97.4372652141247 Z" fill-opacity="0.6980392156862745"/><g transform="scale(23,23)"><g transform="translate(12.173913043478262,4.7053145652173916)"><path fill="rgb(0,0,0)" stroke="none" paint-order="stroke fill markers" d=" M 0.222 -0.218 L 0.178 -0.218 Q 0.163 -0.162 0.163 -0.125 Q 0.163 -0.028 0.261 -0.028 Q 0.396 -0.028 0.47100000000000003 -0.107 Q 0.481 -0.11800000000000001 0.486 -0.11800000000000001 Q 0.493 -0.11800000000000001 0.502 -0.108 Q 0.511 -0.098 0.511 -0.092 Q 0.511 -0.081 0.482 -0.0565 Q 0.453 -0.032 0.41300000000000003 -0.016 Q 0.35000000000000003 0.008 0.258 0.008 Q 0.159 0.008 0.10400000000000001 -0.039 Q 0.049 -0.08600000000000001 0.049 -0.17200000000000001 Q 0.049 -0.29 0.1365 -0.371 Q 0.224 -0.452 0.358 -0.452 Q 0.42 -0.452 0.4575 -0.4255 Q 0.495 -0.399 0.495 -0.356 Q 0.495 -0.272 0.396 -0.23800000000000002 Q 0.336 -0.218 0.222 -0.218 M 0.187 -0.254 Q 0.216 -0.254 0.232 -0.254 Q 0.248 -0.254 0.278 -0.256 Q 0.308 -0.258 0.326 -0.2615 Q 0.34400000000000003 -0.265 0.367 -0.2725 Q 0.39 -0.28 0.403 -0.2905 Q 0.41600000000000004 -0.301 0.4255 -0.3175 Q 0.435 -0.334 0.435 -0.355 Q 0.435 -0.386 0.41200000000000003 -0.401 Q 0.389 -0.41600000000000004 0.358 -0.41600000000000004 Q 0.292 -0.41600000000000004 0.246 -0.37 Q 0.20600000000000002 -0.333 0.187 -0.254 Z"/></g><g transform="translate(12.727522043478261,4.855314565217392) scale(0.7,0.7)"><path fill="rgb(0,0,0)" stroke="none" paint-order="stroke fill markers" d=" M 0.517 -0.222 L 0.486 0 L 0.057 0 L 0.057 -0.018000000000000002 Q 0.057 -0.034 0.059000000000000004 -0.0385 Q 0.061 -0.043000000000000003 0.07 -0.052000000000000005 L 0.271 -0.257 Q 0.379 -0.367 0.379 -0.465 Q 0.379 -0.525 0.34400000000000003 -0.5665 Q 0.309 -0.608 0.247 -0.608 Q 0.186 -0.608 0.14400000000000002 -0.5730000000000001 Q 0.155 -0.5700000000000001 0.166 -0.5645 Q 0.177 -0.559 0.189 -0.542 Q 0.201 -0.525 0.201 -0.501 Q 0.201 -0.466 0.1785 -0.4475 Q 0.156 -0.429 0.129 -0.429 Q 0.10400000000000001 -0.429 0.0805 -0.4465 Q 0.057 -0.464 0.057 -0.503 Q 0.057 -0.5700000000000001 0.11850000000000001 -0.6125 Q 0.18 -0.655 0.272 -0.655 Q 0.379 -0.655 0.448 -0.603 Q 0.517 -0.551 0.517 -0.466 Q 0.517 -0.431 0.507 -0.404 Q 0.497 -0.377 0.46900000000000003 -0.34750000000000003 Q 0.441 -0.318 0.417 -0.299 Q 0.393 -0.28 0.339 -0.24 Q 0.292 -0.20600000000000002 0.195 -0.125 L 0.342 -0.125 Q 0.433 -0.125 0.444 -0.131 Q 0.457 -0.138 0.47000000000000003 -0.222 L 0.517 -0.222 Z"/></g></g><path fill="none" stroke="rgb(0,0,0)" paint-order="fill stroke markers" d=" M 309.5281743050336 119.00300525920358 L 331.0939143501124 119.00300525920358" stroke-opacity="0.6980392156862745" stroke-linecap="round" stroke-linejoin="round" stroke-miterlimit="10" stroke-width="2"/><path fill="rgb(0,0,0)" stroke="none" paint-order="stroke fill markers" fill-rule="evenodd" d=" M 347.0939143501124 119.00300525920358 L 331.0939143501124 123.00300525920358 L 331.0939143501124 115.00300525920358 Z" fill-opacity="0.6980392156862745"/><g transform="scale(23,23)"><g transform="translate(13.782608695652174,6.053140652173913)"><path fill="rgb(0,0,0)" stroke="none" paint-order="stroke fill markers" d=" M 0.222 -0.218 L 0.178 -0.218 Q 0.163 -0.162 0.163 -0.125 Q 0.163 -0.028 0.261 -0.028 Q 0.396 -0.028 0.47100000000000003 -0.107 Q 0.481 -0.11800000000000001 0.486 -0.11800000000000001 Q 0.493 -0.11800000000000001 0.502 -0.108 Q 0.511 -0.098 0.511 -0.092 Q 0.511 -0.081 0.482 -0.0565 Q 0.453 -0.032 0.41300000000000003 -0.016 Q 0.35000000000000003 0.008 0.258 0.008 Q 0.159 0.008 0.10400000000000001 -0.039 Q 0.049 -0.08600000000000001 0.049 -0.17200000000000001 Q 0.049 -0.29 0.1365 -0.371 Q 0.224 -0.452 0.358 -0.452 Q 0.42 -0.452 0.4575 -0.4255 Q 0.495 -0.399 0.495 -0.356 Q 0.495 -0.272 0.396 -0.23800000000000002 Q 0.336 -0.218 0.222 -0.218 M 0.187 -0.254 Q 0.216 -0.254 0.232 -0.254 Q 0.248 -0.254 0.278 -0.256 Q 0.308 -0.258 0.326 -0.2615 Q 0.34400000000000003 -0.265 0.367 -0.2725 Q 0.39 -0.28 0.403 -0.2905 Q 0.41600000000000004 -0.301 0.4255 -0.3175 Q 0.435 -0.334 0.435 -0.355 Q 0.435 -0.386 0.41200000000000003 -0.401 Q 0.389 -0.41600000000000004 0.358 -0.41600000000000004 Q 0.292 -0.41600000000000004 0.246 -0.37 Q 0.20600000000000002 -0.333 0.187 -0.254 Z"/></g><g transform="translate(14.336217695652174,6.203140652173913) scale(0.7,0.7)"><path fill="rgb(0,0,0)" stroke="none" paint-order="stroke fill markers" d=" M 0.354 -0.623 L 0.354 -0.047 L 0.494 -0.047 L 0.494 0 Q 0.45 -0.003 0.295 -0.003 Q 0.14 -0.003 0.096 0 L 0.096 -0.047 L 0.23500000000000001 -0.047 L 0.23500000000000001 -0.5640000000000001 Q 0.17300000000000001 -0.544 0.105 -0.544 L 0.085 -0.544 L 0.085 -0.591 L 0.105 -0.591 Q 0.229 -0.591 0.306 -0.648 Q 0.315 -0.655 0.328 -0.655 Q 0.34600000000000003 -0.655 0.35000000000000003 -0.6485 Q 0.354 -0.642 0.354 -0.623 Z"/></g></g><g transform="scale(23,23)"><g transform="translate(10.347826086956522,11.458387091304347)"><path fill="rgb(0,0,0)" stroke="none" paint-order="stroke fill markers" d=" M 0.293 0.25 L 0.128 0.25 L 0.128 -0.75 L 0.293 -0.75 L 0.293 -0.6890000000000001 L 0.189 -0.6890000000000001 L 0.189 0.189 L 0.293 0.189 L 0.293 0.25 Z"/></g><g transform="translate(10.667269086956521,11.458387091304347)"><path fill="rgb(0,0,0)" stroke="none" paint-order="stroke fill markers" d=" M 0.536 -0.401 Q 0.516 -0.41600000000000004 0.488 -0.41600000000000004 Q 0.461 -0.41600000000000004 0.4375 -0.392 Q 0.41400000000000003 -0.368 0.403 -0.325 Q 0.4 -0.316 0.385 -0.257 Q 0.37 -0.198 0.368 -0.189 Q 0.34600000000000003 -0.099 0.34600000000000003 -0.078 Q 0.34600000000000003 -0.028 0.402 -0.028 Q 0.44 -0.028 0.482 -0.0575 Q 0.524 -0.08700000000000001 0.544 -0.149 Q 0.548 -0.162 0.5670000000000001 -0.162 Q 0.591 -0.162 0.591 -0.148 Q 0.591 -0.134 0.578 -0.1095 Q 0.5650000000000001 -0.085 0.542 -0.058 Q 0.519 -0.031 0.48 -0.0115 Q 0.441 0.008 0.397 0.008 Q 0.295 0.008 0.259 -0.053 Q 0.215 0.008 0.152 0.008 Q 0.105 0.008 0.07150000000000001 -0.0165 Q 0.038 -0.041 0.038 -0.08 Q 0.038 -0.115 0.06 -0.1365 Q 0.082 -0.158 0.11 -0.158 Q 0.133 -0.158 0.1465 -0.14400000000000002 Q 0.16 -0.13 0.16 -0.112 Q 0.16 -0.091 0.1455 -0.07050000000000001 Q 0.131 -0.05 0.106 -0.043000000000000003 Q 0.126 -0.028 0.154 -0.028 Q 0.181 -0.028 0.20450000000000002 -0.051500000000000004 Q 0.228 -0.075 0.23900000000000002 -0.11900000000000001 L 0.273 -0.256 Q 0.296 -0.34800000000000003 0.296 -0.366 Q 0.296 -0.41600000000000004 0.24 -0.41600000000000004 Q 0.202 -0.41600000000000004 0.16 -0.3865 Q 0.11800000000000001 -0.357 0.098 -0.295 Q 0.094 -0.28200000000000003 0.075 -0.28200000000000003 Q 0.051000000000000004 -0.28200000000000003 0.051000000000000004 -0.296 Q 0.051000000000000004 -0.31 0.064 -0.3345 Q 0.077 -0.359 0.1 -0.386 Q 0.123 -0.41300000000000003 0.162 -0.4325 Q 0.201 -0.452 0.245 -0.452 Q 0.34700000000000003 -0.452 0.383 -0.391 Q 0.427 -0.452 0.49 -0.452 Q 0.537 -0.452 0.5705 -0.4275 Q 0.604 -0.403 0.604 -0.364 Q 0.604 -0.329 0.582 -0.3075 Q 0.56 -0.28600000000000003 0.532 -0.28600000000000003 Q 0.509 -0.28600000000000003 0.4955 -0.3 Q 0.482 -0.314 0.482 -0.332 Q 0.482 -0.353 0.4965 -0.3735 Q 0.511 -0.394 0.536 -0.401 Z"/></g><g transform="translate(11.326296086956521,11.458387091304347)"><path fill="rgb(0,0,0)" stroke="none" paint-order="stroke fill markers" d=" M 0.19 -0.75 L 0.19 0.25 L 0.025 0.25 L 0.025 0.189 L 0.129 0.189 L 0.129 -0.6890000000000001 L 0.025 -0.6890000000000001 L 0.025 -0.75 L 0.19 -0.75 Z"/></g><g transform="translate(11.645739086956521,11.045495091304348) scale(0.7,0.7)"><path fill="rgb(0,0,0)" stroke="none" paint-order="stroke fill markers" d=" M 0.736 -0.675 L 0.757 -0.434 L 0.71 -0.434 Q 0.706 -0.47600000000000003 0.7030000000000001 -0.4985 Q 0.7000000000000001 -0.521 0.6895 -0.5505 Q 0.679 -0.58 0.663 -0.594 Q 0.647 -0.608 0.618 -0.618 Q 0.589 -0.628 0.547 -0.628 L 0.47100000000000003 -0.628 L 0.47100000000000003 -0.047 L 0.624 -0.047 L 0.624 0 Q 0.5700000000000001 -0.003 0.4 -0.003 Q 0.23 -0.003 0.176 0 L 0.176 -0.047 L 0.329 -0.047 L 0.329 -0.628 L 0.252 -0.628 Q 0.21 -0.628 0.1805 -0.6175 Q 0.151 -0.607 0.135 -0.593 Q 0.11900000000000001 -0.579 0.109 -0.55 Q 0.099 -0.521 0.0955 -0.4985 Q 0.092 -0.47600000000000003 0.089 -0.434 L 0.042 -0.434 L 0.063 -0.675 L 0.736 -0.675 Z"/></g><g transform="translate(11.645739086956521,11.705604091304348) scale(0.7,0.7)"><path fill="rgb(0,0,0)" stroke="none" paint-order="stroke fill markers" d=" M 0.229 -0.357 Q 0.151 -0.391 0.151 -0.46 Q 0.151 -0.519 0.20400000000000001 -0.5760000000000001 Q 0.257 -0.633 0.3385 -0.668 Q 0.42 -0.7030000000000001 0.501 -0.7030000000000001 Q 0.5650000000000001 -0.7030000000000001 0.596 -0.6880000000000001 Q 0.627 -0.673 0.627 -0.636 Q 0.627 -0.587 0.5805 -0.5545 Q 0.534 -0.522 0.503 -0.522 Q 0.484 -0.522 0.484 -0.535 Q 0.484 -0.541 0.489 -0.548 Q 0.497 -0.56 0.497 -0.5740000000000001 Q 0.497 -0.598 0.47500000000000003 -0.607 Q 0.453 -0.616 0.40700000000000003 -0.616 Q 0.34600000000000003 -0.616 0.317 -0.597 Q 0.302 -0.588 0.2915 -0.5665 Q 0.281 -0.545 0.281 -0.522 Q 0.281 -0.47800000000000004 0.326 -0.4505 Q 0.371 -0.423 0.448 -0.421 Q 0.47200000000000003 -0.421 0.47200000000000003 -0.40800000000000003 Q 0.47200000000000003 -0.391 0.435 -0.363 Q 0.398 -0.335 0.34800000000000003 -0.334 Q 0.297 -0.333 0.259 -0.3125 Q 0.221 -0.292 0.202 -0.264 Q 0.183 -0.23600000000000002 0.17450000000000002 -0.212 Q 0.166 -0.188 0.166 -0.171 Q 0.166 -0.122 0.212 -0.096 Q 0.258 -0.07 0.321 -0.07 Q 0.356 -0.07 0.385 -0.081 Q 0.41400000000000003 -0.092 0.4265 -0.1015 Q 0.439 -0.111 0.458 -0.13 Q 0.48 -0.152 0.5055000000000001 -0.1645 Q 0.531 -0.177 0.541 -0.179 Q 0.551 -0.181 0.556 -0.181 Q 0.5740000000000001 -0.181 0.5740000000000001 -0.168 Q 0.5740000000000001 -0.156 0.544 -0.1265 Q 0.514 -0.097 0.4685 -0.0645 Q 0.423 -0.032 0.356 -0.0075 Q 0.289 0.017 0.227 0.017 Q 0.183 0.017 0.14300000000000002 0.007 Q 0.10300000000000001 -0.003 0.0695 -0.033 Q 0.036000000000000004 -0.063 0.036000000000000004 -0.109 Q 0.036000000000000004 -0.128 0.044 -0.1525 Q 0.052000000000000005 -0.177 0.07050000000000001 -0.2115 Q 0.089 -0.246 0.1305 -0.28500000000000003 Q 0.17200000000000001 -0.324 0.229 -0.357 Z"/></g><g transform="translate(12.227474717391305,11.458387091304347)"><path fill="rgb(0,0,0)" stroke="none" paint-order="stroke fill markers" d=" M 0.645 -0.682 L 0.739 -0.067 Q 0.741 -0.054 0.7435 -0.051500000000000004 Q 0.746 -0.049 0.755 -0.048 Q 0.769 -0.047 0.794 -0.047 Q 0.81 -0.047 0.8165 -0.0465 Q 0.8230000000000001 -0.046 0.8285 -0.042 Q 0.834 -0.038 0.834 -0.029 Q 0.834 -0.016 0.8280000000000001 -0.009000000000000001 Q 0.8220000000000001 -0.002 0.8175 -0.001 Q 0.8130000000000001 0 0.806 0 Q 0.794 0 0.771 -0.001 Q 0.748 -0.002 0.736 -0.002 Q 0.724 -0.002 0.7010000000000001 -0.0025 Q 0.678 -0.003 0.667 -0.003 Q 0.65 -0.003 0.592 -0.0015 Q 0.534 0 0.518 0 Q 0.496 0 0.496 -0.018000000000000002 Q 0.496 -0.032 0.502 -0.0385 Q 0.508 -0.045 0.514 -0.046 Q 0.52 -0.047 0.533 -0.047 Q 0.5740000000000001 -0.047 0.598 -0.052000000000000005 L 0.5750000000000001 -0.198 L 0.305 -0.198 L 0.213 -0.058 Q 0.23500000000000001 -0.047 0.271 -0.047 Q 0.297 -0.047 0.297 -0.029 Q 0.297 0 0.27 0 Q 0.252 0 0.215 -0.0015 Q 0.178 -0.003 0.159 -0.003 Q 0.14300000000000002 -0.003 0.111 -0.0015 Q 0.079 0 0.064 0 Q 0.056 0 0.0505 -0.0055 Q 0.045 -0.011 0.045 -0.018000000000000002 Q 0.045 -0.031 0.051000000000000004 -0.038 Q 0.057 -0.045 0.062 -0.046 Q 0.067 -0.047 0.077 -0.047 Q 0.111 -0.047 0.132 -0.0535 Q 0.153 -0.06 0.1595 -0.0665 Q 0.166 -0.073 0.17400000000000002 -0.085 L 0.5670000000000001 -0.686 Q 0.577 -0.7020000000000001 0.5855 -0.7065 Q 0.594 -0.711 0.611 -0.711 Q 0.63 -0.711 0.636 -0.706 Q 0.642 -0.7010000000000001 0.645 -0.682 M 0.524 -0.533 L 0.336 -0.245 L 0.5680000000000001 -0.245 L 0.524 -0.533 Z"/></g><g transform="translate(13.096914717391304,11.458387091304347)"><path fill="rgb(0,0,0)" stroke="none" paint-order="stroke fill markers" d=" M 0.293 0.25 L 0.128 0.25 L 0.128 -0.75 L 0.293 -0.75 L 0.293 -0.6890000000000001 L 0.189 -0.6890000000000001 L 0.189 0.189 L 0.293 0.189 L 0.293 0.25 Z"/></g><g transform="translate(13.416357717391303,11.458387091304347)"><path fill="rgb(0,0,0)" stroke="none" paint-order="stroke fill markers" d=" M 0.536 -0.401 Q 0.516 -0.41600000000000004 0.488 -0.41600000000000004 Q 0.461 -0.41600000000000004 0.4375 -0.392 Q 0.41400000000000003 -0.368 0.403 -0.325 Q 0.4 -0.316 0.385 -0.257 Q 0.37 -0.198 0.368 -0.189 Q 0.34600000000000003 -0.099 0.34600000000000003 -0.078 Q 0.34600000000000003 -0.028 0.402 -0.028 Q 0.44 -0.028 0.482 -0.0575 Q 0.524 -0.08700000000000001 0.544 -0.149 Q 0.548 -0.162 0.5670000000000001 -0.162 Q 0.591 -0.162 0.591 -0.148 Q 0.591 -0.134 0.578 -0.1095 Q 0.5650000000000001 -0.085 0.542 -0.058 Q 0.519 -0.031 0.48 -0.0115 Q 0.441 0.008 0.397 0.008 Q 0.295 0.008 0.259 -0.053 Q 0.215 0.008 0.152 0.008 Q 0.105 0.008 0.07150000000000001 -0.0165 Q 0.038 -0.041 0.038 -0.08 Q 0.038 -0.115 0.06 -0.1365 Q 0.082 -0.158 0.11 -0.158 Q 0.133 -0.158 0.1465 -0.14400000000000002 Q 0.16 -0.13 0.16 -0.112 Q 0.16 -0.091 0.1455 -0.07050000000000001 Q 0.131 -0.05 0.106 -0.043000000000000003 Q 0.126 -0.028 0.154 -0.028 Q 0.181 -0.028 0.20450000000000002 -0.051500000000000004 Q 0.228 -0.075 0.23900000000000002 -0.11900000000000001 L 0.273 -0.256 Q 0.296 -0.34800000000000003 0.296 -0.366 Q 0.296 -0.41600000000000004 0.24 -0.41600000000000004 Q 0.202 -0.41600000000000004 0.16 -0.3865 Q 0.11800000000000001 -0.357 0.098 -0.295 Q 0.094 -0.28200000000000003 0.075 -0.28200000000000003 Q 0.051000000000000004 -0.28200000000000003 0.051000000000000004 -0.296 Q 0.051000000000000004 -0.31 0.064 -0.3345 Q 0.077 -0.359 0.1 -0.386 Q 0.123 -0.41300000000000003 0.162 -0.4325 Q 0.201 -0.452 0.245 -0.452 Q 0.34700000000000003 -0.452 0.383 -0.391 Q 0.427 -0.452 0.49 -0.452 Q 0.537 -0.452 0.5705 -0.4275 Q 0.604 -0.403 0.604 -0.364 Q 0.604 -0.329 0.582 -0.3075 Q 0.56 -0.28600000000000003 0.532 -0.28600000000000003 Q 0.509 -0.28600000000000003 0.4955 -0.3 Q 0.482 -0.314 0.482 -0.332 Q 0.482 -0.353 0.4965 -0.3735 Q 0.511 -0.394 0.536 -0.401 Z"/></g><g transform="translate(14.075384717391303,11.458387091304347)"><path fill="rgb(0,0,0)" stroke="none" paint-order="stroke fill markers" d=" M 0.19 -0.75 L 0.19 0.25 L 0.025 0.25 L 0.025 0.189 L 0.129 0.189 L 0.129 -0.6890000000000001 L 0.025 -0.6890000000000001 L 0.025 -0.75 L 0.19 -0.75 Z"/></g><g transform="translate(14.394827717391303,11.608387091304348) scale(0.7,0.7)"><path fill="rgb(0,0,0)" stroke="none" paint-order="stroke fill markers" d=" M 0.229 -0.357 Q 0.151 -0.391 0.151 -0.46 Q 0.151 -0.519 0.20400000000000001 -0.5760000000000001 Q 0.257 -0.633 0.3385 -0.668 Q 0.42 -0.7030000000000001 0.501 -0.7030000000000001 Q 0.5650000000000001 -0.7030000000000001 0.596 -0.6880000000000001 Q 0.627 -0.673 0.627 -0.636 Q 0.627 -0.587 0.5805 -0.5545 Q 0.534 -0.522 0.503 -0.522 Q 0.484 -0.522 0.484 -0.535 Q 0.484 -0.541 0.489 -0.548 Q 0.497 -0.56 0.497 -0.5740000000000001 Q 0.497 -0.598 0.47500000000000003 -0.607 Q 0.453 -0.616 0.40700000000000003 -0.616 Q 0.34600000000000003 -0.616 0.317 -0.597 Q 0.302 -0.588 0.2915 -0.5665 Q 0.281 -0.545 0.281 -0.522 Q 0.281 -0.47800000000000004 0.326 -0.4505 Q 0.371 -0.423 0.448 -0.421 Q 0.47200000000000003 -0.421 0.47200000000000003 -0.40800000000000003 Q 0.47200000000000003 -0.391 0.435 -0.363 Q 0.398 -0.335 0.34800000000000003 -0.334 Q 0.297 -0.333 0.259 -0.3125 Q 0.221 -0.292 0.202 -0.264 Q 0.183 -0.23600000000000002 0.17450000000000002 -0.212 Q 0.166 -0.188 0.166 -0.171 Q 0.166 -0.122 0.212 -0.096 Q 0.258 -0.07 0.321 -0.07 Q 0.356 -0.07 0.385 -0.081 Q 0.41400000000000003 -0.092 0.4265 -0.1015 Q 0.439 -0.111 0.458 -0.13 Q 0.48 -0.152 0.5055000000000001 -0.1645 Q 0.531 -0.177 0.541 -0.179 Q 0.551 -0.181 0.556 -0.181 Q 0.5740000000000001 -0.181 0.5740000000000001 -0.168 Q 0.5740000000000001 -0.156 0.544 -0.1265 Q 0.514 -0.097 0.4685 -0.0645 Q 0.423 -0.032 0.356 -0.0075 Q 0.289 0.017 0.227 0.017 Q 0.183 0.017 0.14300000000000002 0.007 Q 0.10300000000000001 -0.003 0.0695 -0.033 Q 0.036000000000000004 -0.063 0.036000000000000004 -0.109 Q 0.036000000000000004 -0.128 0.044 -0.1525 Q 0.052000000000000005 -0.177 0.07050000000000001 -0.2115 Q 0.089 -0.246 0.1305 -0.28500000000000003 Q 0.17200000000000001 -0.324 0.229 -0.357 Z"/></g><g transform="translate(15.097465028502414,11.458387091304347)"><path fill="rgb(0,0,0)" stroke="none" paint-order="stroke fill markers" d=" M 0.788 -0.332 L 0.105 -0.332 Q 0.064 -0.332 0.064 -0.362 Q 0.064 -0.393 0.11 -0.393 L 0.783 -0.393 Q 0.8290000000000001 -0.393 0.8290000000000001 -0.362 Q 0.8290000000000001 -0.332 0.788 -0.332 M 0.783 -0.108 L 0.11 -0.108 Q 0.064 -0.108 0.064 -0.139 Q 0.064 -0.169 0.105 -0.169 L 0.788 -0.169 Q 0.8290000000000001 -0.169 0.8290000000000001 -0.139 Q 0.8290000000000001 -0.108 0.783 -0.108 Z"/></g><g transform="translate(16.269683639613525,11.458387091304347)"><path fill="rgb(0,0,0)" stroke="none" paint-order="stroke fill markers" d=" M 0.354 -0.623 L 0.354 -0.047 L 0.494 -0.047 L 0.494 0 Q 0.45 -0.003 0.295 -0.003 Q 0.14 -0.003 0.096 0 L 0.096 -0.047 L 0.23500000000000001 -0.047 L 0.23500000000000001 -0.5640000000000001 Q 0.17300000000000001 -0.544 0.105 -0.544 L 0.085 -0.544 L 0.085 -0.591 L 0.105 -0.591 Q 0.229 -0.591 0.306 -0.648 Q 0.315 -0.655 0.328 -0.655 Q 0.34600000000000003 -0.655 0.35000000000000003 -0.6485 Q 0.354 -0.642 0.354 -0.623 Z"/></g></g><path fill="none" stroke="rgb(0,153,255)" paint-order="fill stroke markers" d=" M 362.65415335736617 65.87702620687095 C 347.98381933214944 51.206692181654205 312.30585282930076 63.09934768260378 282.9651847788673 92.44001573303726 C 253.62451672843383 121.78068378347075 241.73186122748427 157.45865028631945 256.402195252701 172.12898431153621 C 271.07252927791774 186.79931833675295 306.7504957807664 174.9066628358034 336.0911638311999 145.5659947853699 C 365.43183188163334 116.2253267349364 377.3244873825829 80.5473602320877 362.65415335736617 65.87702620687095 Z" stroke-opacity="0.6980392156862745" stroke-linecap="round" stroke-linejoin="round" stroke-miterlimit="10" stroke-width="2.5"/><path fill="rgb(102,204,255)" stroke="none" paint-order="stroke fill markers" d=" M 313.5281743050336 119.00300525920358 C 313.5281743050336 121.21214425852675 311.73731330435675 123.00300525920358 309.5281743050336 123.00300525920358 C 307.31903530571043 123.00300525920358 305.5281743050336 121.21214425852675 305.5281743050336 119.00300525920358 C 305.5281743050336 116.7938662598804 307.31903530571043 115.00300525920358 309.5281743050336 115.00300525920358 C 311.73731330435675 115.00300525920358 313.5281743050336 116.7938662598804 313.5281743050336 119.00300525920358 Z" fill-opacity="1"/><path fill="none" stroke="rgb(0,0,0)" paint-order="fill stroke markers" d=" M 313.5281743050336 119.00300525920358 C 313.5281743050336 121.21214425852675 311.73731330435675 123.00300525920358 309.5281743050336 123.00300525920358 C 307.31903530571043 123.00300525920358 305.5281743050336 121.21214425852675 305.5281743050336 119.00300525920358 C 305.5281743050336 116.7938662598804 307.31903530571043 115.00300525920358 309.5281743050336 115.00300525920358 C 311.73731330435675 115.00300525920358 313.5281743050336 116.7938662598804 313.5281743050336 119.00300525920358 Z" stroke-opacity="1" stroke-linecap="round" stroke-linejoin="round" stroke-miterlimit="10"/></g></g></svg>